<svg xmlns="http://www.w3.org/2000/svg" width="1254" height="836" viewBox="0 0 1254 836">
<g>
<path d="M 468.00 435.99 C468.00,436.54 467.66,436.94 467.25,436.87 C466.84,436.80 463.35,436.37 459.50,435.91 C431.25,432.55 409.97,417.02 410.00,399.79 C410.01,391.06 417.36,378.44 429.42,366.46 C435.48,360.44 449.03,349.53 447.62,351.80 C446.33,353.89 448.61,353.10 450.60,350.77 C452.48,348.56 452.48,348.55 450.50,350.02 C448.65,351.39 448.60,351.37 449.86,349.77 C450.75,348.62 451.76,348.31 452.86,348.83 C453.76,349.27 455.51,349.55 456.75,349.45 C457.99,349.35 459.00,349.38 459.00,349.51 C459.00,351.52 455.11,357.74 451.78,361.06 C449.43,363.40 448.22,364.80 449.09,364.17 C452.77,361.51 451.59,364.67 447.05,369.64 C436.91,380.74 433.90,392.25 439.31,399.33 C443.01,404.20 447.01,406.84 454.83,409.61 C458.50,410.91 461.40,412.39 461.27,412.91 C461.15,413.43 462.36,414.14 463.95,414.49 C468.14,415.41 471.60,419.35 472.96,424.76 C474.13,429.39 474.09,429.53 471.07,432.22 C469.38,433.74 468.00,435.43 468.00,435.99 ZM 559.03 453.48 C523.18,456.88 488.43,455.25 463.55,449.01 C452.06,446.13 446.89,444.14 454.00,445.33 C469.35,447.91 475.04,448.22 496.98,447.71 C520.36,447.16 541.92,445.01 560.37,441.38 C566.76,440.13 569.62,439.96 571.32,440.74 C572.81,441.41 574.23,441.45 575.33,440.84 C576.44,440.21 579.66,440.38 584.74,441.33 C588.98,442.12 593.03,442.54 593.73,442.27 C594.44,442.00 596.67,442.09 598.69,442.47 C601.41,442.98 601.99,443.39 600.93,444.06 C599.76,444.81 599.82,444.97 601.25,444.98 C602.21,444.99 603.00,445.38 603.00,445.84 C603.00,446.30 599.74,447.25 595.75,447.95 C591.76,448.65 585.14,449.87 581.03,450.66 C576.93,451.46 567.03,452.73 559.03,453.48 ZM 797.67 316.65 C793.89,320.69 790.47,324.00 790.07,324.00 C789.14,324.00 789.34,320.87 790.38,319.20 C790.81,318.50 791.36,316.30 791.61,314.31 C791.86,312.32 793.45,308.54 795.15,305.92 C796.85,303.30 798.18,300.89 798.11,300.57 C798.03,300.25 799.10,297.75 800.49,295.03 C801.99,292.06 803.00,288.37 803.00,285.85 C803.00,282.14 802.46,281.14 798.45,277.41 C795.84,274.98 794.35,272.90 794.95,272.53 C795.53,272.17 796.00,271.01 796.00,269.94 C796.00,268.53 796.69,268.00 798.56,268.00 C800.01,268.00 800.85,267.57 800.50,267.00 C799.49,265.36 804.76,267.72 808.52,270.58 C814.86,275.42 817.48,284.32 814.85,292.10 C813.07,297.35 805.25,308.53 797.67,316.65 ZM 792.08 318.41 C790.74,319.83 790.09,321.00 790.63,321.00 C791.17,321.00 793.16,319.37 795.05,317.37 C797.13,315.19 797.71,314.16 796.50,314.78 C795.40,315.35 793.41,316.98 792.08,318.41 ZM 457.00 359.50 C456.32,360.33 455.31,361.00 454.76,361.00 C454.20,361.00 454.31,360.34 455.00,359.50 C455.68,358.67 456.69,358.00 457.24,358.00 C457.80,358.00 457.69,358.66 457.00,359.50 Z" fill="rgb(72,73,76)"/>
<path d="M 602.71 446.12 C602.90,446.02 603.00,445.92 603.00,445.84 C603.00,445.38 602.21,444.99 601.25,444.98 C599.82,444.97 599.76,444.81 600.93,444.06 C601.99,443.39 601.41,442.98 598.69,442.47 C596.67,442.09 594.44,442.00 593.73,442.27 C593.03,442.54 588.98,442.12 584.74,441.33 C579.66,440.38 576.44,440.21 575.33,440.84 C574.23,441.45 572.81,441.41 571.32,440.74 C569.62,439.96 566.76,440.13 560.37,441.38 C553.86,442.66 546.97,443.76 539.74,444.66 C551.77,443.04 564.85,440.61 582.50,436.93 C588.00,435.78 594.30,434.35 596.50,433.76 C610.53,429.99 623.05,427.42 624.13,428.08 C624.83,428.51 626.09,428.49 626.95,428.03 C629.01,426.93 634.46,425.87 639.96,425.51 C643.17,425.30 644.99,424.56 646.46,422.84 C647.64,421.47 649.34,420.61 650.50,420.79 C651.74,420.99 652.06,420.80 651.35,420.30 C650.69,419.85 652.21,419.50 654.85,419.50 C659.88,419.50 666.31,417.31 665.44,415.90 C665.14,415.42 665.60,415.29 666.46,415.62 C667.32,415.95 668.65,415.71 669.41,415.08 C670.17,414.45 671.17,414.00 671.64,414.08 C673.88,414.48 676.06,413.90 675.53,413.05 C675.21,412.52 678.44,410.99 682.72,409.64 C687.00,408.28 694.33,405.76 699.00,404.04 C703.67,402.31 709.75,400.08 712.50,399.08 C715.25,398.07 724.45,394.26 732.94,390.61 C741.44,386.95 748.74,384.08 749.18,384.23 C750.54,384.70 737.08,393.39 722.00,401.78 C692.72,418.07 660.10,431.34 627.00,440.42 C619.63,442.44 616.00,443.30 609.00,444.67 C608.38,444.79 605.81,445.38 602.71,446.12 ZM 471.96 563.34 C475.34,569.85 477.97,575.47 477.80,575.84 C477.64,576.20 475.14,576.36 472.25,576.20 L 467.01 575.90 L 464.43 570.44 C463.01,567.44 461.01,564.54 459.99,564.00 C458.04,562.95 428.04,562.61 424.40,563.59 C423.07,563.95 421.25,566.33 419.46,570.08 L 416.63 576.00 L 411.32 576.00 C408.39,576.00 406.00,575.74 406.00,575.43 C406.00,574.52 422.15,544.60 423.23,543.50 C423.78,542.95 423.25,544.53 422.07,547.00 C420.67,549.92 420.48,550.80 421.53,549.50 C422.41,548.40 423.66,547.65 424.29,547.82 C424.92,548.00 426.80,548.19 428.47,548.24 C430.14,548.29 430.93,548.52 430.24,548.75 C429.55,548.98 429.24,549.58 429.55,550.09 C429.86,550.59 429.64,551.00 429.06,551.00 C428.48,551.00 428.00,550.47 428.00,549.83 C428.00,549.19 427.71,548.96 427.36,549.31 C427.00,549.66 427.25,550.60 427.91,551.39 C428.72,552.36 428.76,553.03 428.05,553.47 C424.93,555.40 428.25,556.00 442.02,556.00 L 457.04 556.00 L 452.89 547.50 L 455.03 550.00 C456.21,551.38 456.93,552.02 456.64,551.43 C456.28,550.72 457.67,550.44 460.65,550.61 C463.15,550.75 465.34,551.01 465.51,551.18 C465.68,551.36 468.58,556.83 471.96,563.34 ZM 545.14 574.24 C540.67,576.47 538.96,576.71 526.86,576.76 C512.11,576.83 508.74,576.36 501.75,573.24 C496.65,570.96 496.38,570.45 498.16,566.55 C499.25,564.16 502.00,562.96 502.00,564.86 C502.00,565.34 506.16,566.86 511.25,568.24 C523.26,571.51 532.52,571.23 540.23,567.34 C543.53,565.68 546.34,560.64 545.48,557.93 C544.68,555.42 538.44,552.22 532.84,551.46 C527.14,550.68 519.28,549.07 515.35,547.87 C513.17,547.21 512.29,546.38 512.52,545.20 C512.70,544.27 512.92,542.83 513.00,542.00 C513.10,541.03 513.33,540.92 513.65,541.70 C514.00,542.57 514.85,542.63 516.74,541.91 C518.17,541.36 520.05,541.19 520.92,541.53 C521.79,541.87 525.65,542.51 529.50,542.95 C540.34,544.20 548.03,546.83 551.74,550.54 C554.61,553.41 555.00,554.44 555.00,559.17 C555.00,566.12 551.89,570.88 545.14,574.24 ZM 751.38 574.40 C750.30,576.22 745.85,577.06 741.75,576.21 C740.29,575.91 740.19,575.50 741.15,573.68 C741.78,572.48 742.57,571.28 742.90,571.00 C743.23,570.72 746.15,565.33 749.39,559.00 C754.75,548.55 758.08,542.98 756.53,547.05 C756.04,548.32 756.60,548.53 759.61,548.18 C762.48,547.84 763.12,548.05 762.56,549.12 C762.17,549.88 762.50,549.71 763.29,548.75 C765.79,545.70 766.11,546.85 763.95,551.10 C762.80,553.35 762.00,555.33 762.18,555.49 C762.58,555.86 780.88,556.34 787.23,556.14 C791.72,556.01 791.91,555.89 791.08,553.70 C790.27,551.59 790.49,551.38 793.70,551.16 C795.63,551.03 797.91,551.50 798.77,552.21 C800.15,553.35 800.19,553.24 799.13,551.25 C798.47,550.01 798.28,549.00 798.71,549.00 C800.07,549.01 813.38,574.58 812.64,575.77 C812.36,576.23 809.96,576.36 807.31,576.05 C802.59,575.51 802.44,575.39 799.18,569.23 L 795.87 562.96 L 757.51 563.50 L 755.00 568.01 C753.63,570.49 752.00,573.37 751.38,574.40 ZM 670.00 567.08 L 670.00 576.00 L 660.00 576.00 L 660.00 566.00 C660.00,560.50 660.42,556.00 660.93,556.00 C661.44,556.00 663.57,554.39 665.66,552.41 C668.65,549.60 669.40,548.21 669.15,545.91 C668.99,544.31 669.33,543.00 669.92,543.00 C670.52,543.00 671.00,543.90 671.00,545.00 C671.00,546.89 671.73,547.01 683.75,547.19 C690.76,547.29 698.19,547.42 700.25,547.47 C702.31,547.53 704.00,547.29 704.00,546.95 C704.00,546.61 704.56,546.31 705.25,546.29 C705.94,546.26 707.37,545.88 708.42,545.45 C710.03,544.78 710.23,544.97 709.62,546.55 C708.98,548.22 709.18,548.18 711.26,546.23 C714.68,543.01 715.37,543.49 712.19,546.88 C709.20,550.08 704.03,553.00 701.35,553.00 C699.99,553.00 700.30,553.71 702.80,556.30 C704.56,558.11 706.00,559.97 706.00,560.43 C706.00,560.89 706.82,561.99 707.83,562.88 C710.59,565.31 716.00,573.11 716.00,574.65 C716.00,575.60 714.53,576.00 711.02,576.00 L 706.03 576.00 L 698.27 565.54 L 690.50 555.09 L 680.86 555.04 C672.96,555.01 671.10,555.29 670.61,556.58 C670.27,557.45 670.00,562.18 670.00,567.08 ZM 468.00 435.99 C468.00,435.43 469.38,433.74 471.07,432.22 C474.09,429.53 474.13,429.39 472.96,424.76 C471.60,419.35 468.14,415.41 463.95,414.49 C462.36,414.14 461.15,413.43 461.27,412.91 C461.39,412.41 458.71,411.01 455.23,409.75 C462.13,411.90 471.27,412.92 484.25,413.24 C490.16,413.38 495.00,413.73 495.00,414.00 C495.00,414.28 497.45,417.12 500.45,420.32 C506.87,427.16 508.02,429.78 505.43,431.67 C504.43,432.40 504.04,433.05 504.56,433.12 C505.08,433.18 504.15,433.58 502.50,434.00 C499.71,434.71 499.81,434.78 504.00,435.00 C508.19,435.22 508.29,435.29 505.50,436.00 C502.34,436.80 481.10,436.93 467.91,436.44 C467.97,436.31 468.00,436.16 468.00,435.99 ZM 759.07 346.88 C747.26,354.60 744.11,356.25 745.50,354.00 C745.84,353.45 745.69,353.00 745.17,353.00 C741.47,353.00 744.33,344.38 748.92,341.69 C750.61,340.70 752.00,339.21 752.00,338.38 C752.00,337.45 752.47,337.17 753.25,337.63 C754.25,338.23 754.25,338.07 753.26,336.85 C751.57,334.76 752.79,333.82 755.38,335.20 C757.30,336.22 757.37,336.17 756.11,334.64 C754.89,333.17 754.93,333.03 756.35,333.58 C757.36,333.97 758.22,333.60 758.60,332.61 C758.93,331.73 759.56,331.23 759.99,331.49 C760.42,331.76 761.39,331.22 762.14,330.30 C763.31,328.85 763.29,328.74 762.00,329.47 C758.58,331.41 762.07,328.84 770.95,322.86 C782.92,314.81 797.27,301.25 800.54,294.92 C800.52,294.96 800.50,294.99 800.49,295.03 C799.10,297.75 798.03,300.25 798.11,300.57 C798.18,300.89 796.85,303.30 795.15,305.92 C793.45,308.54 791.86,312.32 791.61,314.31 C791.36,316.30 790.81,318.50 790.38,319.20 C789.37,320.83 789.15,323.85 790.00,323.99 C788.61,325.31 787.35,326.40 786.35,327.17 C785.17,328.07 781.34,331.05 777.85,333.79 C774.36,336.53 765.91,342.42 759.07,346.88 ZM 438.08 383.66 C439.71,379.16 442.73,374.36 447.05,369.64 C451.59,364.67 452.77,361.51 449.09,364.17 C448.22,364.80 449.43,363.40 451.78,361.06 C455.11,357.74 459.00,351.52 459.00,349.51 C459.00,349.38 457.99,349.35 456.75,349.45 C455.51,349.55 453.76,349.27 452.86,348.83 C451.76,348.31 450.75,348.62 449.86,349.77 C448.60,351.37 448.65,351.39 450.50,350.02 C452.48,348.55 452.48,348.56 450.60,350.77 C448.61,353.10 446.33,353.89 447.62,351.80 C448.08,351.07 446.96,351.71 445.05,353.13 C454.81,345.65 466.24,338.35 478.83,331.72 C486.32,327.77 490.49,326.09 491.15,326.75 C492.84,328.44 492.83,331.41 491.13,333.40 C489.58,335.20 489.61,335.24 491.75,334.11 C492.99,333.46 494.00,333.28 493.99,333.71 C493.99,334.15 489.60,337.10 484.24,340.28 C470.15,348.64 463.72,353.43 453.77,362.96 C444.97,371.39 440.45,377.30 438.08,383.66 ZM 609.85 564.25 L 610.00 576.00 L 605.63 576.00 C601.36,576.00 601.25,575.92 600.64,572.25 C600.30,570.19 600.08,564.45 600.15,559.50 C600.25,552.53 600.45,551.40 601.00,554.50 C601.49,557.22 601.77,557.70 601.87,556.00 C601.96,554.62 602.36,553.95 602.77,554.50 C603.17,555.05 604.40,555.66 605.50,555.85 C606.60,556.04 607.80,556.68 608.17,557.27 C608.53,557.87 609.03,557.03 609.27,555.42 C609.51,553.82 609.77,557.79 609.85,564.25 ZM 774.99 281.50 C774.18,282.01 771.35,282.70 768.71,283.04 C765.08,283.50 764.04,283.35 764.40,282.39 C764.67,281.70 764.46,280.99 763.94,280.81 C763.42,280.64 765.65,278.70 768.90,276.50 C773.00,273.73 775.82,270.81 778.08,267.00 C782.94,258.83 785.00,258.18 785.00,264.82 C785.00,269.87 779.80,278.53 774.99,281.50 ZM 806.55 269.21 C803.18,267.04 799.66,265.64 800.50,267.00 C800.85,267.57 800.01,268.00 798.56,268.00 C796.69,268.00 796.00,268.53 796.00,269.94 C796.00,271.01 795.53,272.17 794.95,272.53 C794.39,272.88 795.68,274.74 798.02,276.99 C795.92,275.18 793.44,273.64 792.16,273.38 C789.64,272.88 789.52,272.58 789.85,267.83 C790.02,265.41 789.97,264.11 790.59,263.58 C791.28,263.00 792.79,263.40 796.35,264.33 C796.92,264.48 797.54,264.64 798.21,264.82 C800.79,265.48 803.81,267.14 806.55,269.21 ZM 508.25 544.51 C510.66,545.56 510.98,545.93 509.46,545.96 C508.34,545.98 505.87,544.62 503.96,542.93 C502.06,541.24 501.17,540.22 502.00,540.65 C502.83,541.08 504.51,541.31 505.75,541.15 C507.02,540.98 508.00,541.39 508.00,542.08 C508.00,542.91 508.59,542.78 509.79,541.69 C511.44,540.20 511.57,540.22 511.57,542.02 C511.57,543.49 511.02,543.86 509.30,543.55 C508.05,543.32 506.58,542.86 506.02,542.51 C505.46,542.16 505.00,542.16 505.00,542.49 C505.00,542.82 506.46,543.73 508.25,544.51 ZM 792.08 318.41 C793.41,316.98 795.40,315.35 796.50,314.78 C797.71,314.16 797.13,315.19 795.05,317.37 C793.16,319.37 791.17,321.00 790.63,321.00 C790.09,321.00 790.74,319.83 792.08,318.41 ZM 457.00 359.50 C457.69,358.66 457.80,358.00 457.24,358.00 C456.69,358.00 455.68,358.67 455.00,359.50 C454.31,360.34 454.20,361.00 454.76,361.00 C455.31,361.00 456.32,360.33 457.00,359.50 ZM 449.34 407.38 C444.91,405.28 442.03,402.90 439.31,399.33 C438.68,398.52 438.17,397.64 437.77,396.71 C438.67,398.41 440.03,400.11 441.90,401.97 C444.07,404.13 446.48,405.92 449.34,407.38 ZM 815.58 289.24 C816.21,285.58 815.78,281.82 814.43,278.45 C816.01,282.11 816.44,285.45 815.58,289.24 ZM 415.98 415.38 C424.21,425.67 440.24,433.62 459.50,435.91 C440.04,433.59 424.11,425.65 415.98,415.38 ZM 580.99 450.67 L 581.03 450.66 C583.82,450.12 587.76,449.39 591.25,448.76 C587.86,449.46 584.46,450.10 580.99,450.67 ZM 806.10 306.52 C808.07,303.90 809.85,301.31 811.31,298.96 C810.65,300.08 809.91,301.25 809.10,302.48 C808.36,303.60 807.33,304.99 806.10,306.52 ZM 419.13 378.35 C416.07,382.54 413.71,386.63 412.15,390.42 C413.68,386.58 416.03,382.53 419.13,378.35 ZM 801.59 280.65 C802.78,282.22 803.00,283.49 803.00,285.85 C803.00,283.50 802.75,282.21 801.59,280.65 Z" fill="rgb(95,98,100)"/>
<path d="M 677.00 389.30 C674.53,390.15 671.76,391.13 670.85,391.49 C668.64,392.36 667.65,390.54 669.50,389.00 C670.31,388.33 670.69,387.26 670.33,386.64 C669.97,386.01 670.00,385.79 670.39,386.13 C671.25,386.90 680.00,378.70 680.00,377.12 C680.00,376.50 680.45,376.00 681.00,376.00 C681.55,376.00 682.87,375.21 683.93,374.25 C687.68,370.84 688.79,370.13 689.39,370.73 C689.73,371.06 690.00,370.57 690.00,369.64 C690.00,368.71 691.15,367.51 692.56,366.98 C693.97,366.44 694.87,365.60 694.57,365.11 C694.27,364.63 694.58,364.25 695.26,364.27 C698.23,364.38 700.28,363.95 699.68,363.35 C699.32,362.99 709.04,357.67 721.27,351.52 C748.61,337.77 768.06,325.93 782.15,314.34 C778.45,317.45 774.59,320.41 770.95,322.86 C762.07,328.84 758.58,331.41 762.00,329.47 C763.29,328.74 763.31,328.85 762.14,330.30 C761.39,331.22 760.42,331.76 759.99,331.49 C759.56,331.23 758.93,331.73 758.60,332.61 C758.22,333.60 757.36,333.97 756.35,333.58 C754.93,333.03 754.89,333.17 756.11,334.64 C757.37,336.17 757.30,336.22 755.38,335.20 C752.79,333.82 751.57,334.76 753.26,336.85 C754.25,338.07 754.25,338.23 753.25,337.63 C752.47,337.17 752.00,337.45 752.00,338.38 C752.00,339.21 750.61,340.70 748.92,341.69 C744.33,344.38 741.47,353.00 745.17,353.00 C745.69,353.00 745.84,353.45 745.50,354.00 C744.88,355.01 745.17,355.23 746.74,354.48 C743.76,356.16 741.25,357.67 740.99,357.95 C738.20,360.99 688.33,385.42 677.00,389.30 ZM 511.00 435.61 C509.05,435.86 506.59,436.07 503.79,436.25 C504.56,436.17 505.15,436.09 505.50,436.00 C508.29,435.29 508.19,435.22 504.00,435.00 C499.81,434.78 499.71,434.71 502.50,434.00 C504.15,433.58 505.08,433.18 504.56,433.12 C504.04,433.05 504.43,432.40 505.43,431.67 C508.02,429.78 506.87,427.16 500.45,420.32 C497.45,417.12 495.00,414.28 495.00,414.00 C495.00,413.73 490.16,413.38 484.25,413.24 C478.30,413.09 473.17,412.80 468.68,412.31 C479.04,413.37 492.80,413.45 507.63,412.45 C518.01,411.74 528.53,410.91 531.00,410.60 C534.29,410.18 534.83,410.27 533.00,410.92 C531.18,411.56 530.99,411.83 532.31,411.90 C533.30,411.96 533.84,412.45 533.50,413.00 C533.16,413.55 533.87,414.00 535.09,414.00 C536.44,414.00 539.19,415.97 542.15,419.06 C547.07,424.19 548.00,425.99 545.75,426.02 C544.86,426.03 544.90,426.28 545.90,426.91 C547.09,427.67 547.09,427.87 545.90,428.27 C545.13,428.53 545.85,428.56 547.50,428.35 C550.29,427.98 550.36,428.05 548.50,429.27 C546.75,430.43 527.05,434.28 523.00,434.26 C522.17,434.25 516.78,434.86 511.00,435.61 ZM 764.53 283.07 C759.37,282.58 754.53,280.71 754.17,278.13 C753.98,276.83 754.38,275.26 755.06,274.63 C755.99,273.77 756.12,273.81 755.56,274.79 C753.88,277.77 764.99,269.64 768.82,265.10 C772.64,260.57 772.97,259.73 772.76,255.08 C772.63,252.28 772.11,250.00 771.60,250.00 C771.09,250.00 770.92,249.75 771.23,249.44 C771.53,249.13 773.40,249.56 775.38,250.38 C778.70,251.77 782.25,256.15 783.96,260.37 C782.90,259.91 780.99,262.10 778.08,267.00 C775.82,270.81 773.00,273.73 768.90,276.50 C765.65,278.70 763.42,280.64 763.94,280.81 C764.46,280.99 764.67,281.70 764.40,282.39 C764.29,282.70 764.31,282.92 764.53,283.07 ZM 487.89 338.06 C491.46,335.83 493.99,334.04 493.99,333.71 C494.00,333.28 492.99,333.46 491.75,334.11 C489.61,335.24 489.58,335.20 491.13,333.40 C492.83,331.41 492.84,328.44 491.15,326.75 C490.73,326.33 488.92,326.85 485.76,328.28 C495.40,323.34 504.92,318.79 509.50,317.08 C512.80,315.85 516.95,314.21 518.73,313.45 C522.88,311.66 524.59,312.36 524.44,315.77 C524.34,318.24 522.89,319.25 509.41,326.33 C500.93,330.79 493.91,334.60 487.89,338.06 ZM 465.69 551.49 C465.59,551.31 465.53,551.20 465.51,551.18 C465.34,551.01 463.15,550.75 460.65,550.61 C457.67,550.44 456.28,550.72 456.64,551.43 C456.93,552.02 456.21,551.38 455.03,550.00 L 452.89 547.50 L 457.04 556.00 L 456.95 556.00 L 450.31 543.25 C446.67,536.24 444.36,531.06 445.18,531.74 C446.01,532.42 447.05,532.65 447.50,532.24 C447.95,531.83 448.00,532.06 447.61,532.74 C447.21,533.43 447.35,534.78 447.92,535.74 C448.88,537.41 448.94,537.40 448.97,535.69 C448.99,534.70 449.44,534.15 449.98,534.49 C450.52,534.82 451.78,534.65 452.78,534.12 C453.79,533.58 455.06,533.45 455.61,533.82 C456.36,534.32 459.56,539.92 465.69,551.49 ZM 800.53 551.31 C799.63,549.88 798.97,549.00 798.71,549.00 C798.28,549.00 798.47,550.01 799.13,551.25 C800.19,553.24 800.15,553.35 798.77,552.21 C797.91,551.50 795.63,551.03 793.70,551.16 C790.49,551.38 790.27,551.59 791.08,553.70 C791.39,554.52 791.56,555.05 791.41,555.40 C790.64,552.55 783.70,538.55 782.74,538.15 C781.36,537.58 785.31,535.07 787.64,535.03 C788.82,535.01 790.05,535.67 790.36,536.50 C790.68,537.33 791.53,538.00 792.26,538.00 C792.99,538.00 794.79,540.36 796.25,543.25 C797.27,545.24 798.94,548.38 800.53,551.31 ZM 706.92 550.99 C708.84,549.88 710.76,548.41 712.19,546.88 C715.37,543.49 714.68,543.01 711.26,546.23 C709.18,548.18 708.98,548.22 709.62,546.55 C710.23,544.97 710.03,544.78 708.42,545.45 C707.37,545.88 705.94,546.26 705.25,546.29 C704.56,546.31 704.00,546.61 704.00,546.95 C704.00,547.29 702.31,547.53 700.25,547.47 C698.19,547.42 690.76,547.29 683.75,547.19 C678.22,547.11 675.08,547.04 673.30,546.80 C674.89,546.98 677.56,547.00 682.06,547.00 C699.44,547.00 706.00,544.25 706.00,536.95 C706.00,535.42 706.52,533.99 707.16,533.78 C709.52,532.99 713.91,534.26 714.33,535.86 C714.57,536.76 714.87,535.92 714.99,534.00 L 715.20 530.50 L 716.00 533.85 C716.98,538.01 715.50,543.74 712.65,546.85 C711.39,548.23 709.15,549.79 706.92,550.99 ZM 429.67 550.35 C429.65,550.27 429.61,550.18 429.55,550.09 C429.24,549.58 429.55,548.98 430.24,548.75 C430.93,548.52 430.14,548.29 428.47,548.24 C426.80,548.19 424.92,548.00 424.29,547.82 C423.66,547.65 422.41,548.40 421.53,549.50 C420.48,550.80 420.67,549.92 422.07,547.00 C423.25,544.53 423.78,542.95 423.23,543.50 C422.55,544.19 415.94,556.23 411.11,565.33 C417.48,553.26 427.64,534.72 428.28,534.33 C428.92,533.93 429.00,534.19 428.50,535.00 C427.95,535.88 428.08,536.07 428.89,535.57 C429.54,535.16 429.85,534.08 429.56,533.17 C429.28,532.25 429.42,530.90 429.88,530.17 C430.55,529.10 430.85,529.16 431.35,530.47 C431.72,531.42 431.57,531.85 430.99,531.49 C430.44,531.16 430.00,531.36 430.00,531.94 C430.00,532.52 430.79,533.07 431.75,533.15 C432.71,533.24 434.03,533.35 434.68,533.42 C435.33,533.48 436.16,533.83 436.53,534.19 C436.97,534.63 434.01,541.53 429.67,550.35 ZM 508.25 544.51 C506.46,543.73 505.00,542.82 505.00,542.49 C505.00,542.16 505.46,542.16 506.02,542.51 C506.58,542.86 508.05,543.32 509.30,543.55 C511.02,543.86 511.57,543.49 511.57,542.02 C511.57,540.22 511.44,540.20 509.79,541.69 C508.59,542.78 508.00,542.91 508.00,542.08 C508.00,541.39 507.02,540.98 505.75,541.15 C504.51,541.31 502.83,541.08 502.00,540.65 C501.17,540.22 502.06,541.24 503.96,542.93 C504.86,543.73 505.88,544.45 506.83,544.99 C506.05,544.64 505.42,544.30 504.98,543.99 C500.81,541.01 500.16,539.82 499.60,533.97 C499.31,530.96 499.33,529.35 499.64,530.40 C500.08,531.88 500.38,532.00 501.04,530.93 C501.74,529.80 502.47,529.85 505.36,531.23 C507.27,532.14 509.10,533.74 509.43,534.78 C510.47,538.05 519.71,541.81 529.50,542.95 C533.57,543.42 537.19,544.08 540.33,544.92 C537.19,544.08 533.57,543.42 529.50,542.95 C525.65,542.51 521.79,541.87 520.92,541.53 C520.05,541.19 518.17,541.36 516.74,541.91 C514.85,542.63 514.00,542.57 513.65,541.70 C513.33,540.92 513.10,541.03 513.00,542.00 C512.92,542.83 512.70,544.27 512.52,545.20 C512.29,546.37 513.15,547.19 515.27,547.85 C513.01,547.22 510.94,546.57 509.22,545.95 C509.30,545.96 509.39,545.96 509.46,545.96 C510.98,545.93 510.66,545.56 508.25,544.51 ZM 762.21 555.51 C762.20,555.50 762.19,555.49 762.18,555.49 C762.00,555.33 762.80,553.35 763.95,551.10 C766.11,546.85 765.79,545.70 763.29,548.75 C762.50,549.71 762.17,549.88 762.56,549.12 C763.12,548.05 762.48,547.84 759.61,548.18 C756.60,548.53 756.04,548.32 756.53,547.05 C758.08,542.98 754.75,548.55 749.39,559.00 C747.84,562.03 746.36,564.84 745.21,566.99 C749.18,558.61 761.66,536.01 762.55,536.01 C763.13,536.00 764.13,535.47 764.78,534.82 C766.24,533.36 770.00,532.98 770.00,534.29 C770.00,534.82 770.67,534.68 771.50,534.00 C773.89,532.01 773.34,533.43 767.38,544.59 C764.43,550.12 762.18,554.88 762.21,555.51 ZM 609.85 564.25 C609.77,557.79 609.51,553.82 609.27,555.42 C609.03,557.03 608.53,557.87 608.17,557.27 C607.80,556.68 606.60,556.04 605.50,555.85 C604.40,555.66 603.17,555.05 602.77,554.50 C602.36,553.95 601.96,554.62 601.87,556.00 C601.77,557.70 601.49,557.22 601.00,554.50 C600.51,551.77 600.30,552.33 600.19,557.29 C600.17,554.06 600.18,550.55 600.21,547.00 C600.36,529.08 600.50,527.33 601.00,536.50 C601.33,542.55 601.70,546.15 601.82,544.50 C601.93,542.85 602.36,541.96 602.77,542.53 C603.17,543.10 604.51,543.49 605.75,543.42 C607.15,543.33 608.06,543.88 608.17,544.89 C608.26,545.77 608.63,543.80 609.00,540.50 C609.42,536.72 609.73,542.17 609.83,555.25 L 610.00 576.00 ZM 682.50 409.58 C686.90,408.26 694.33,405.76 699.00,404.04 C694.33,405.76 687.00,408.28 682.72,409.64 C678.44,410.99 675.21,412.52 675.53,413.05 C676.06,413.90 673.88,414.48 671.64,414.08 C671.17,414.00 670.17,414.45 669.41,415.08 C668.65,415.71 667.32,415.95 666.46,415.62 C665.60,415.29 665.14,415.42 665.44,415.90 C666.31,417.31 659.88,419.50 654.85,419.50 C652.21,419.50 650.69,419.85 651.35,420.30 C652.06,420.80 651.74,420.99 650.50,420.79 C649.34,420.61 647.64,421.47 646.46,422.84 C644.99,424.56 643.17,425.30 639.96,425.51 C634.46,425.87 629.01,426.93 626.95,428.03 C626.09,428.49 624.83,428.51 624.13,428.08 C623.51,427.70 619.10,428.39 612.79,429.76 C614.51,429.36 617.65,428.51 621.00,427.52 C625.67,426.15 636.70,422.98 645.50,420.49 C654.30,417.99 664.42,415.06 668.00,413.96 C671.58,412.87 678.10,410.90 682.50,409.58 ZM 669.74 543.04 C669.26,543.28 669.00,544.48 669.15,545.91 C669.40,548.21 668.65,549.60 665.66,552.41 C663.57,554.39 661.44,556.00 660.93,556.00 C660.56,556.00 660.24,558.36 660.09,561.76 L 660.12 557.25 C660.18,546.94 660.43,539.27 660.68,540.20 C661.04,541.56 661.62,541.72 663.56,540.98 C664.90,540.47 666.01,540.38 666.02,540.77 C666.02,541.17 666.47,540.83 667.00,540.00 C667.73,538.87 667.99,539.36 668.06,542.00 C668.12,543.92 668.38,544.94 668.66,544.25 C668.96,543.52 669.36,543.13 669.74,543.04 ZM 740.30 267.25 C740.07,267.66 735.97,267.94 731.19,267.87 C724.72,267.77 723.39,267.55 726.00,267.00 L 729.50 266.26 L 726.50 266.06 C723.88,265.89 723.76,265.75 725.50,265.00 C727.24,264.25 727.11,264.12 724.50,263.97 L 721.50 263.80 L 724.99 262.98 C726.91,262.52 731.54,261.85 735.28,261.47 L 742.09 260.79 L 741.41 263.64 C741.03,265.21 740.53,266.84 740.30,267.25 ZM 791.01 533.03 C792.79,537.32 791.70,537.69 789.70,533.49 C788.78,531.57 788.42,530.00 788.89,530.00 C789.37,530.00 790.32,531.36 791.01,533.03 ZM 440.34 378.84 C443.03,374.13 447.21,369.25 453.77,362.96 C461.27,355.78 466.77,351.29 475.06,345.93 C466.17,351.82 459.65,357.33 452.42,364.50 C446.77,370.11 442.86,374.69 440.34,378.84 ZM 669.50 390.00 C668.72,391.27 670.04,391.27 672.00,390.00 C673.29,389.16 673.27,389.03 671.81,389.02 C670.88,389.01 669.84,389.45 669.50,390.00 ZM 496.98 447.71 C514.84,447.29 532.85,445.71 550.95,442.97 C547.06,443.62 543.35,444.18 539.74,444.66 C526.49,446.33 512.11,447.35 496.98,447.71 ZM 692.00 366.00 C691.17,366.53 690.05,366.97 689.50,366.97 C688.95,366.97 689.17,366.53 690.00,366.00 C690.83,365.47 691.95,365.03 692.50,365.03 C693.05,365.03 692.83,365.47 692.00,366.00 ZM 454.67 536.33 C455.03,536.70 455.57,536.77 455.85,536.48 C456.13,536.20 455.83,535.43 455.18,534.78 C454.47,534.07 454.00,534.01 454.00,534.63 C454.00,535.20 454.30,535.97 454.67,536.33 ZM 428.55 552.61 C428.52,552.27 428.31,551.87 427.91,551.39 C427.25,550.60 427.00,549.66 427.36,549.31 C427.71,548.96 428.00,549.19 428.00,549.83 C428.00,550.47 428.48,551.00 429.06,551.00 C429.18,551.00 429.29,550.98 429.38,550.95 C429.11,551.50 428.83,552.05 428.55,552.61 ZM 494.88 436.64 C485.92,436.91 475.72,436.87 467.88,436.52 C467.89,436.50 467.90,436.47 467.91,436.44 C475.88,436.74 486.79,436.81 494.88,436.64 ZM 434.56 535.71 C434.02,537.13 434.14,537.25 435.12,536.27 C435.81,535.59 436.11,534.78 435.81,534.47 C435.50,534.17 434.94,534.72 434.56,535.71 ZM 521.73 317.88 C520.75,318.86 520.87,318.98 522.29,318.44 C523.28,318.06 523.83,317.50 523.53,317.19 C523.22,316.89 522.41,317.19 521.73,317.88 ZM 467.14 338.26 C459.11,343.03 451.69,348.04 445.05,353.13 C444.71,353.37 444.35,353.65 443.97,353.94 C449.28,349.77 455.10,345.66 461.35,341.70 C462.91,340.72 464.88,339.55 467.14,338.26 ZM 612.05 429.93 C607.54,430.92 602.14,432.25 596.50,433.76 C595.40,434.06 593.26,434.57 590.70,435.14 C594.30,434.27 597.90,433.35 601.50,432.39 C606.45,431.07 610.95,430.00 611.50,430.01 C611.59,430.01 611.78,429.98 612.05,429.93 ZM 774.99 281.50 C773.12,282.66 770.29,283.18 767.31,283.20 C767.73,283.16 768.20,283.10 768.71,283.04 C771.35,282.70 774.18,282.01 774.99,281.50 ZM 759.07 346.88 C764.06,343.62 769.92,339.60 774.07,336.60 C767.75,341.24 759.41,346.85 752.83,350.90 C754.57,349.81 756.63,348.48 759.07,346.88 ZM 796.54 300.45 C798.91,297.57 800.58,294.92 801.63,292.38 C801.31,293.25 800.94,294.11 800.54,294.92 L 800.54 294.92 C799.77,296.42 798.38,298.32 796.54,300.45 ZM 427.32 555.04 C426.65,554.66 426.95,554.15 428.05,553.47 C428.09,553.45 428.12,553.42 428.15,553.40 C427.88,553.94 427.60,554.49 427.32,555.04 ZM 532.72 551.44 L 532.84 551.46 C535.90,551.88 539.14,553.02 541.59,554.38 C539.31,553.18 536.21,552.14 532.72,551.44 ZM 808.78 566.51 C811.61,572.00 812.97,575.24 812.64,575.77 C812.92,575.32 811.15,571.30 808.78,566.51 ZM 742.64 571.28 C742.25,571.77 741.65,572.73 741.15,573.68 C741.04,573.90 740.94,574.09 740.85,574.27 C740.95,574.03 741.07,573.75 741.21,573.44 C741.64,572.50 742.19,571.69 742.64,571.28 ZM 406.01 575.46 C406.16,575.76 408.49,576.00 411.32,576.00 C408.39,576.00 406.00,575.78 406.00,575.52 C406.00,575.50 406.00,575.49 406.01,575.46 ZM 785.00 264.89 C785.00,264.92 785.00,264.94 785.00,264.96 C785.00,267.27 783.85,270.40 782.13,273.38 C783.83,270.40 784.98,267.26 785.00,264.89 ZM 787.47 556.14 L 787.23 556.14 C785.67,556.19 783.40,556.20 780.85,556.18 C783.33,556.18 785.64,556.17 787.47,556.14 ZM 437.90 396.95 C437.85,396.87 437.81,396.79 437.77,396.71 C437.50,396.10 437.28,395.46 437.11,394.80 C437.31,395.53 437.58,396.25 437.90,396.95 ZM 671.00 545.00 C671.00,544.25 670.77,543.59 670.44,543.24 C670.77,543.54 671.00,544.14 671.00,545.00 ZM 449.34 407.38 C449.10,407.26 448.87,407.14 448.65,407.02 C449.26,407.33 449.89,407.64 450.55,407.94 C450.13,407.75 449.73,407.57 449.34,407.38 ZM 477.80 575.85 C477.67,576.14 475.99,576.30 473.82,576.26 C475.99,576.30 477.67,576.13 477.80,575.84 C477.80,575.84 477.80,575.84 477.80,575.85 ZM 741.96 576.26 C743.96,576.64 746.02,576.62 747.72,576.30 C746.01,576.63 743.94,576.64 741.96,576.26 Z" fill="rgb(116,119,121)"/>
<path d="M 677.00 389.30 C679.26,388.53 683.06,386.93 687.71,384.86 C684.81,386.17 682.20,387.33 680.00,388.25 C653.48,399.42 620.24,411.24 592.50,419.37 C580.42,422.91 555.55,428.54 538.85,431.76 C543.62,430.78 547.74,429.77 548.50,429.27 C550.36,428.05 550.29,427.98 547.50,428.35 C545.85,428.56 545.13,428.53 545.90,428.27 C547.09,427.87 547.09,427.67 545.90,426.91 C544.90,426.28 544.86,426.03 545.75,426.02 C548.00,425.99 547.07,424.19 542.15,419.06 C539.19,415.97 536.44,414.00 535.09,414.00 C533.87,414.00 533.16,413.55 533.50,413.00 C533.84,412.45 533.30,411.96 532.31,411.90 C530.99,411.83 531.18,411.56 533.00,410.92 C534.83,410.27 534.29,410.18 531.00,410.60 C529.71,410.76 526.22,411.06 521.69,411.42 C525.90,411.07 529.01,410.77 530.00,410.59 C566.82,404.21 581.23,401.19 602.50,395.42 C644.42,384.04 684.53,369.20 717.99,353.17 C707.35,358.60 699.36,363.02 699.68,363.35 C700.28,363.95 698.23,364.38 695.26,364.27 C694.58,364.25 694.27,364.63 694.57,365.11 C694.87,365.60 693.97,366.44 692.56,366.98 C691.15,367.51 690.00,368.71 690.00,369.64 C690.00,370.57 689.73,371.06 689.39,370.73 C688.79,370.13 687.68,370.84 683.93,374.25 C682.87,375.21 681.55,376.00 681.00,376.00 C680.45,376.00 680.00,376.50 680.00,377.12 C680.00,378.70 671.25,386.90 670.39,386.13 C670.00,385.79 669.97,386.01 670.33,386.64 C670.69,387.26 670.31,388.33 669.50,389.00 C667.65,390.54 668.64,392.36 670.85,391.49 C671.76,391.13 674.53,390.15 677.00,389.30 ZM 669.74 543.04 C669.36,543.13 668.96,543.52 668.66,544.25 C668.38,544.94 668.12,543.92 668.06,542.00 C667.99,539.36 667.73,538.87 667.00,540.00 C666.47,540.83 666.02,541.17 666.02,540.77 C666.01,540.38 664.90,540.47 663.56,540.98 C661.62,541.72 661.04,541.56 660.68,540.20 C660.43,539.27 660.18,546.94 660.12,557.25 L 660.09 561.76 C660.03,563.05 660.00,564.49 660.00,566.00 L 660.00 517.89 L 681.75 518.20 C701.17,518.47 703.92,518.71 707.41,520.50 C712.45,523.08 714.77,526.32 715.88,532.35 C716.07,533.35 716.18,534.34 716.24,535.30 C716.19,534.80 716.11,534.31 716.00,533.85 L 715.20 530.50 L 714.99 534.00 C714.87,535.92 714.57,536.76 714.33,535.86 C713.91,534.26 709.52,532.99 707.16,533.78 C706.52,533.99 706.00,535.42 706.00,536.95 C706.00,540.30 704.62,542.69 701.45,544.30 C705.98,541.53 707.33,536.47 704.55,531.09 C702.22,526.60 698.09,525.50 683.50,525.50 L 670.50 525.50 L 670.18 532.00 C670.01,535.58 670.15,540.41 670.50,542.75 L 670.59 543.42 C670.55,543.35 670.49,543.29 670.44,543.24 C670.29,543.09 670.11,543.00 669.92,543.00 C669.86,543.00 669.80,543.02 669.74,543.04 ZM 610.00 525.06 L 610.00 576.00 L 609.83 555.25 C609.73,542.17 609.42,536.72 609.00,540.50 C608.63,543.80 608.26,545.77 608.17,544.89 C608.06,543.88 607.15,543.33 605.75,543.42 C604.51,543.49 603.17,543.10 602.77,542.53 C602.36,541.96 601.93,542.85 601.82,544.50 C601.70,546.15 601.33,542.55 601.00,536.50 C600.50,527.33 600.36,529.08 600.21,547.00 C600.18,550.55 600.17,554.06 600.19,557.29 C600.18,557.95 600.16,558.68 600.15,559.50 C600.15,559.84 600.14,560.19 600.14,560.54 C600.06,556.43 600.01,551.63 600.01,546.75 L 600.00 525.00 L 574.00 525.00 L 574.00 518.00 L 635.70 518.00 L 635.60 521.25 L 635.50 524.50 L 622.75 524.78 ZM 777.55 251.68 C776.83,251.13 776.10,250.69 775.38,250.38 C773.40,249.56 771.53,249.13 771.23,249.44 C770.92,249.75 771.09,250.00 771.60,250.00 C772.11,250.00 772.63,252.28 772.76,255.08 C772.97,259.73 772.64,260.57 768.82,265.10 C764.99,269.64 753.88,277.77 755.56,274.79 C756.12,273.81 755.99,273.77 755.06,274.63 C754.38,275.26 753.98,276.83 754.17,278.13 C754.40,279.81 756.54,281.19 759.44,282.09 C755.27,281.05 752.00,279.28 752.00,277.23 C752.00,276.52 751.33,275.68 750.51,275.36 C749.68,275.05 749.26,274.39 749.56,273.90 C749.87,273.40 749.66,273.00 749.09,273.00 C748.53,273.00 748.32,272.33 748.64,271.50 C748.95,270.67 748.83,270.00 748.36,270.00 C747.07,270.00 747.62,260.59 749.05,257.87 C753.70,249.07 765.96,245.39 775.09,250.05 C775.92,250.47 776.75,251.02 777.55,251.68 ZM 516.72 525.39 C510.97,527.06 509.00,528.99 509.00,532.94 C509.00,537.24 517.78,541.51 529.50,542.92 C534.96,543.58 539.60,544.56 543.33,545.83 C542.39,545.51 541.38,545.21 540.33,544.93 C537.19,544.08 533.57,543.42 529.50,542.95 C519.71,541.81 510.47,538.05 509.43,534.78 C509.10,533.74 507.27,532.14 505.36,531.23 C502.47,529.85 501.74,529.80 501.04,530.93 C500.38,532.00 500.08,531.88 499.64,530.40 C499.33,529.35 499.31,530.96 499.60,533.97 C500.03,538.41 500.50,540.17 502.54,542.06 C502.01,541.62 501.55,541.16 501.16,540.69 C499.45,538.63 498.39,527.00 499.92,527.00 C500.58,527.00 500.88,526.62 500.59,526.15 C499.76,524.81 504.04,521.31 509.40,518.94 C513.30,517.21 516.26,516.78 524.38,516.75 C537.15,516.69 542.49,517.30 547.37,519.36 C550.96,520.88 551.20,521.23 550.62,524.13 C550.28,525.84 550.00,527.82 550.00,528.51 C550.00,529.39 548.14,529.02 543.84,527.28 C535.58,523.94 524.38,523.17 516.72,525.39 ZM 487.89 338.06 C493.91,334.60 500.93,330.79 509.41,326.33 C522.89,319.25 524.34,318.24 524.44,315.77 C524.59,312.36 522.88,311.66 518.73,313.45 C516.95,314.21 512.80,315.85 509.50,317.08 C504.92,318.79 495.40,323.34 485.76,328.28 C495.39,323.35 504.90,318.80 509.50,317.07 C512.80,315.83 517.75,313.78 520.50,312.52 C532.44,307.04 570.84,295.30 582.50,293.56 C583.60,293.40 585.26,292.94 586.19,292.55 C587.12,292.15 588.62,291.98 589.51,292.17 C590.41,292.35 585.83,294.46 579.32,296.86 C572.82,299.26 564.58,302.33 561.00,303.68 C530.91,315.07 496.57,332.06 474.35,346.40 C477.77,344.18 480.77,342.34 484.24,340.28 C485.53,339.52 486.77,338.77 487.89,338.06 ZM 740.30 267.25 C740.41,267.06 740.56,266.64 740.74,266.08 L 740.36 267.50 L 726.43 268.69 C718.77,269.35 707.55,270.56 701.50,271.40 C683.95,273.81 678.82,274.37 673.50,274.44 C670.75,274.47 668.28,274.75 668.00,275.05 C667.72,275.35 663.09,276.28 657.70,277.12 C647.90,278.64 644.09,278.11 650.24,276.09 C656.08,274.17 672.21,271.01 673.16,271.60 C673.67,271.91 674.63,271.73 675.29,271.20 C676.36,270.34 683.65,268.91 694.00,267.53 C695.92,267.27 699.30,266.64 701.50,266.12 C704.69,265.37 717.91,263.59 728.30,262.37 C726.92,262.59 725.74,262.80 724.99,262.98 L 721.50 263.80 L 724.50 263.97 C727.11,264.12 727.24,264.25 725.50,265.00 C723.76,265.75 723.88,265.89 726.50,266.06 L 729.50 266.26 L 726.00 267.00 C723.39,267.55 724.72,267.77 731.19,267.87 C735.97,267.94 740.07,267.66 740.30,267.25 ZM 800.53 551.31 C798.94,548.38 797.27,545.24 796.25,543.25 C794.79,540.36 792.99,538.00 792.26,538.00 C791.53,538.00 790.68,537.33 790.36,536.50 C790.05,535.67 788.82,535.01 787.64,535.03 C785.71,535.06 782.68,536.79 782.47,537.70 C781.96,537.33 781.89,537.02 782.32,537.02 C782.78,537.01 782.21,535.81 781.07,534.37 C779.93,532.92 779.00,530.94 779.00,529.97 C779.00,529.01 778.41,527.99 777.69,527.71 C776.98,527.44 774.91,530.44 771.56,536.59 C773.39,532.87 773.12,532.66 771.50,534.00 C770.67,534.68 770.00,534.82 770.00,534.29 C770.00,532.98 766.24,533.36 764.78,534.82 C764.13,535.47 763.13,536.00 762.55,536.01 C761.98,536.01 756.60,545.39 751.78,554.30 C756.63,544.97 762.25,534.48 763.84,532.00 C764.73,530.62 765.48,529.28 765.52,529.00 C765.85,526.81 767.32,524.00 768.13,524.00 C768.67,524.00 768.88,523.62 768.59,523.15 C768.31,522.68 768.99,521.31 770.12,520.10 C771.84,518.25 773.06,517.95 777.83,518.20 C783.34,518.49 783.56,518.61 785.52,522.50 C786.73,524.90 788.15,527.68 789.67,530.61 C789.36,530.23 789.09,530.00 788.89,530.00 C788.42,530.00 788.78,531.57 789.70,533.49 C791.57,537.42 792.65,537.35 791.32,533.80 C794.68,540.28 798.24,547.02 800.71,551.59 C800.65,551.50 800.59,551.41 800.53,551.31 ZM 429.67 550.35 C434.01,541.53 436.97,534.63 436.53,534.19 C436.16,533.83 435.33,533.48 434.68,533.42 C434.03,533.35 432.71,533.24 431.75,533.15 C430.79,533.07 430.00,532.52 430.00,531.94 C430.00,531.36 430.44,531.16 430.99,531.49 C431.57,531.85 431.72,531.42 431.35,530.47 C430.85,529.16 430.55,529.10 429.88,530.17 C429.42,530.90 429.28,532.25 429.56,533.17 C429.85,534.08 429.54,535.16 428.89,535.57 C428.08,536.07 427.95,535.88 428.50,535.00 C429.00,534.19 428.92,533.93 428.28,534.33 C427.67,534.71 418.22,551.90 411.83,563.96 C418.25,551.77 427.74,534.28 428.29,533.89 C428.78,533.55 429.14,532.88 429.10,532.39 C428.95,530.61 430.16,528.00 431.13,528.00 C431.67,528.00 431.84,527.55 431.50,527.00 C431.16,526.45 431.39,526.00 432.00,526.00 C432.61,526.00 432.86,525.59 432.55,525.08 C432.24,524.57 432.57,523.56 433.30,522.83 C434.02,522.10 434.91,520.71 435.27,519.75 C435.80,518.36 437.13,518.00 441.78,518.00 C447.50,518.00 447.68,518.08 449.71,521.75 C451.79,525.50 457.15,535.48 462.41,545.35 C458.39,537.92 456.21,534.22 455.61,533.82 C455.06,533.45 453.79,533.58 452.78,534.12 C451.78,534.65 450.52,534.82 449.98,534.49 C449.44,534.15 448.99,534.70 448.97,535.69 C448.94,537.40 448.88,537.41 447.92,535.74 C447.35,534.78 447.21,533.43 447.61,532.74 C448.00,532.06 447.95,531.83 447.50,532.24 C447.05,532.65 446.01,532.42 445.18,531.74 C444.36,531.06 446.67,536.24 450.31,543.25 L 452.47 547.40 L 452.39 547.25 C449.80,542.44 447.37,538.05 446.98,537.50 C446.60,536.95 445.48,534.36 444.50,531.75 C443.53,529.14 442.45,527.01 442.11,527.03 C441.78,527.05 440.78,528.51 439.91,530.28 C439.04,532.05 435.89,538.22 432.93,544.00 C431.74,546.32 430.61,548.52 429.67,550.35 ZM 614.87 319.94 C614.25,326.30 613.42,331.86 613.03,332.29 C612.63,332.73 612.02,326.62 611.66,318.71 C611.30,310.81 610.80,302.13 610.54,299.42 C610.17,295.59 610.26,295.16 610.92,297.50 C611.44,299.34 611.81,299.78 611.88,298.63 C611.98,297.14 612.29,296.99 613.40,297.92 C614.48,298.81 614.93,298.78 615.32,297.79 C616.28,295.42 616.01,308.25 614.87,319.94 ZM 613.01 222.48 C612.18,222.49 611.21,223.84 610.81,225.50 C610.39,227.30 610.27,226.10 610.52,222.50 C610.75,219.20 611.22,211.57 611.58,205.54 C612.53,189.36 613.50,188.78 614.84,203.58 C616.09,217.38 616.25,227.89 615.15,224.48 C614.79,223.38 613.83,222.48 613.01,222.48 ZM 668.39 263.84 C663.37,264.48 657.07,264.93 654.39,264.84 C650.75,264.72 650.33,264.58 652.75,264.28 C654.54,264.05 656.00,263.48 656.00,263.00 C656.00,262.52 654.54,261.95 652.75,261.72 C650.96,261.50 656.23,261.25 664.45,261.16 C672.67,261.07 678.97,261.38 678.45,261.84 C677.93,262.30 673.40,263.20 668.39,263.84 ZM 566.50 263.15 C570.96,263.97 557.27,263.88 552.27,263.06 C544.06,261.72 546.81,261.00 559.58,261.15 C568.10,261.25 570.97,261.52 568.00,261.95 C563.83,262.56 563.72,262.65 566.50,263.15 ZM 669.50 390.00 C669.84,389.45 670.88,389.01 671.81,389.02 C673.27,389.03 673.29,389.16 672.00,390.00 C670.04,391.27 668.72,391.27 669.50,390.00 ZM 692.00 366.00 C692.83,365.47 693.05,365.03 692.50,365.03 C691.95,365.03 690.83,365.47 690.00,366.00 C689.17,366.53 688.95,366.97 689.50,366.97 C690.05,366.97 691.17,366.53 692.00,366.00 ZM 454.67 536.33 C454.30,535.97 454.00,535.20 454.00,534.63 C454.00,534.01 454.47,534.07 455.18,534.78 C455.83,535.43 456.13,536.20 455.85,536.48 C455.57,536.77 455.03,536.70 454.67,536.33 ZM 434.56 535.71 C434.94,534.72 435.50,534.17 435.81,534.47 C436.11,534.78 435.81,535.59 435.12,536.27 C434.14,537.25 434.02,537.13 434.56,535.71 ZM 521.73 317.88 C522.41,317.19 523.22,316.89 523.53,317.19 C523.83,317.50 523.28,318.06 522.29,318.44 C520.87,318.98 520.75,318.86 521.73,317.88 ZM 452.58 408.78 C457.45,410.56 463.50,411.81 470.80,412.51 C470.08,412.45 469.37,412.39 468.68,412.31 C463.37,411.75 458.97,410.91 455.23,409.75 C455.10,409.70 454.96,409.66 454.83,409.61 C454.04,409.33 453.29,409.05 452.58,408.78 ZM 440.34 378.84 C442.69,374.98 446.24,370.73 451.29,365.63 C446.49,370.63 442.31,375.62 440.25,379.01 C440.28,378.95 440.31,378.90 440.34,378.84 ZM 511.53 546.73 C512.69,547.11 513.95,547.48 515.27,547.85 L 515.35 547.87 C518.10,548.71 522.75,549.75 527.26,550.56 C521.10,549.55 515.80,548.25 511.53,546.73 ZM 511.00 435.61 C516.51,434.89 521.68,434.31 522.86,434.26 C520.95,434.43 516.03,435.00 511.00,435.64 C508.90,435.90 506.20,436.12 503.14,436.30 C503.37,436.28 503.59,436.26 503.79,436.25 C506.59,436.07 509.05,435.86 511.00,435.61 ZM 787.47 556.14 C786.55,556.15 785.50,556.17 784.37,556.17 C787.38,556.07 789.88,555.92 791.03,555.75 C790.50,556.01 789.41,556.08 787.47,556.14 ZM 783.21 538.68 C784.07,539.89 785.72,542.99 787.33,546.23 C785.75,543.15 784.13,540.15 783.21,538.68 ZM 715.90 540.15 C715.38,542.77 714.28,545.08 712.65,546.85 C714.20,545.16 715.34,542.71 715.90,540.15 ZM 494.88 436.64 C495.20,436.63 495.52,436.63 495.84,436.62 C491.67,436.75 487.20,436.82 482.80,436.82 C486.86,436.82 490.99,436.76 494.88,436.64 ZM 437.76 396.64 C437.50,396.03 437.28,395.42 437.11,394.80 C436.91,394.00 436.77,393.17 436.71,392.32 C436.83,393.83 437.18,395.27 437.76,396.64 ZM 438.08 383.66 L 438.08 383.66 C438.26,383.16 438.46,382.66 438.68,382.17 C438.05,383.64 437.58,385.06 437.24,386.42 C437.46,385.52 437.74,384.60 438.08,383.66 ZM 764.62 549.94 C765.11,548.96 765.65,547.88 766.24,546.76 C765.66,547.90 765.11,548.97 764.62,549.94 ZM 779.73 316.30 C780.64,315.58 781.53,314.86 782.40,314.14 C782.32,314.21 782.24,314.28 782.15,314.34 L 782.15 314.35 C781.36,315.00 780.55,315.65 779.73,316.30 Z" fill="rgb(145,146,148)"/>
<path d="M 613.01 222.48 C613.83,222.48 614.79,223.38 615.15,224.48 C616.05,227.29 616.11,220.67 615.40,210.56 C616.79,224.07 618.76,240.31 619.57,243.50 C621.49,251.10 625.58,255.54 632.49,257.52 C638.10,259.12 659.06,261.00 671.35,261.00 C675.71,261.00 678.88,261.37 678.47,261.82 C678.76,261.37 672.53,261.07 664.45,261.16 C656.23,261.25 650.96,261.50 652.75,261.72 C654.54,261.95 656.00,262.52 656.00,263.00 C656.00,263.48 654.54,264.05 652.75,264.28 C650.33,264.58 650.75,264.72 654.39,264.84 C656.21,264.90 659.71,264.71 663.33,264.39 C657.39,265.15 650.51,265.94 644.27,266.52 C629.16,267.92 622.43,272.09 619.65,281.81 C618.71,285.10 616.83,299.51 615.50,312.16 C616.07,303.30 616.06,295.94 615.32,297.79 C614.93,298.78 614.48,298.81 613.40,297.92 C612.29,296.99 611.98,297.14 611.88,298.63 C611.81,299.78 611.44,299.34 610.92,297.50 C610.26,295.16 610.17,295.59 610.54,299.42 C610.76,301.71 611.15,308.31 611.49,315.08 C611.30,312.18 611.07,309.33 610.82,307.00 C610.21,301.23 609.62,294.92 609.50,293.00 C609.39,291.08 609.05,288.83 608.75,288.00 C608.44,287.17 607.63,284.31 606.94,281.63 C606.24,278.96 604.59,275.48 603.26,273.90 C600.16,270.21 590.77,267.26 578.06,265.98 C568.66,265.04 561.30,264.19 556.16,263.47 C562.07,263.88 570.06,263.80 566.50,263.15 C563.72,262.65 563.83,262.56 568.00,261.95 C570.97,261.52 568.10,261.25 559.58,261.15 C551.86,261.06 547.80,261.29 547.61,261.78 C546.84,261.32 548.73,261.04 553.50,260.99 C569.32,260.82 591.41,258.33 597.36,256.03 C602.44,254.07 603.45,253.23 605.06,249.60 C606.72,245.85 608.28,238.99 609.40,230.50 C609.62,228.85 610.34,220.10 611.00,211.06 C611.27,207.41 611.58,203.88 611.88,200.90 C611.78,202.27 611.68,203.81 611.58,205.54 C611.22,211.57 610.75,219.20 610.52,222.50 C610.27,226.10 610.39,227.30 610.81,225.50 C611.21,223.84 612.18,222.49 613.01,222.48 ZM 614.00 331.03 C614.00,333.15 613.55,335.16 613.00,335.50 C612.36,335.89 611.99,332.75 611.97,326.81 C611.96,325.67 611.93,324.33 611.88,322.89 C612.24,328.66 612.71,332.65 613.03,332.29 C613.31,331.98 613.81,329.07 614.30,325.13 C614.11,327.66 614.00,329.71 614.00,331.03 ZM 612.86 193.27 C612.92,192.93 612.99,192.69 613.04,192.56 C613.81,190.65 613.88,190.68 613.94,193.00 C613.97,194.06 614.06,195.60 614.20,197.48 C613.71,193.61 613.27,192.20 612.86,193.27 Z" fill="rgb(204,205,206)"/>
<path d="M 0.00 418.00 L 0.00 0.00 L 627.00 0.00 L 1254.00 0.00 L 1254.00 418.00 L 1254.00 836.00 L 627.00 836.00 L 0.00 836.00 L 0.00 418.00 ZM 472.71 564.85 C467.14,554.14 453.36,528.33 449.71,521.75 C447.68,518.08 447.50,518.00 441.78,518.00 C437.13,518.00 435.80,518.36 435.27,519.75 C434.91,520.71 434.02,522.10 433.30,522.83 C432.57,523.56 432.24,524.57 432.55,525.08 C432.86,525.59 432.61,526.00 432.00,526.00 C431.39,526.00 431.16,526.45 431.50,527.00 C431.84,527.55 431.67,528.00 431.13,528.00 C430.16,528.00 428.95,530.61 429.10,532.39 C429.14,532.88 428.78,533.55 428.29,533.89 C427.45,534.48 406.00,574.53 406.00,575.52 C406.00,575.78 408.39,576.00 411.32,576.00 L 416.63 576.00 L 419.46 570.08 C421.25,566.33 423.07,563.95 424.40,563.59 C428.04,562.61 458.04,562.95 459.99,564.00 C461.01,564.54 463.01,567.44 464.43,570.44 L 467.01 575.90 L 472.25 576.20 C475.14,576.36 477.64,576.21 477.80,575.85 C477.97,575.49 475.68,570.54 472.71,564.85 ZM 545.14 574.24 C551.89,570.88 555.00,566.12 555.00,559.17 C555.00,554.44 554.61,553.41 551.74,550.54 C548.04,546.84 540.42,544.23 529.50,542.92 C517.78,541.51 509.00,537.24 509.00,532.94 C509.00,528.99 510.97,527.06 516.72,525.39 C524.38,523.17 535.58,523.94 543.84,527.28 C548.14,529.02 550.00,529.39 550.00,528.51 C550.00,527.82 550.28,525.84 550.62,524.13 C551.20,521.23 550.96,520.88 547.37,519.36 C542.49,517.30 537.15,516.69 524.38,516.75 C516.26,516.78 513.30,517.21 509.40,518.94 C504.04,521.31 499.76,524.81 500.59,526.15 C500.88,526.62 500.58,527.00 499.92,527.00 C498.39,527.00 499.45,538.63 501.16,540.69 C504.87,545.16 515.39,548.89 530.30,551.03 C538.12,552.15 544.58,555.09 545.48,557.93 C546.34,560.64 543.53,565.68 540.23,567.34 C532.52,571.23 523.26,571.51 511.25,568.24 C506.16,566.86 502.00,565.34 502.00,564.86 C502.00,562.96 499.25,564.16 498.16,566.55 C496.38,570.45 496.65,570.96 501.75,573.24 C508.74,576.36 512.11,576.83 526.86,576.76 C538.96,576.71 540.67,576.47 545.14,574.24 ZM 751.38 574.40 C752.00,573.37 753.63,570.49 755.00,568.01 L 757.51 563.50 L 776.69 563.23 L 795.87 562.96 L 799.18 569.23 C802.44,575.39 802.59,575.51 807.31,576.05 C809.96,576.36 812.36,576.23 812.64,575.77 C813.15,574.94 809.56,567.52 802.57,555.00 C799.26,549.07 790.54,532.45 785.52,522.50 C783.56,518.61 783.34,518.49 777.83,518.20 C773.06,517.95 771.84,518.25 770.12,520.10 C768.99,521.31 768.31,522.68 768.59,523.15 C768.88,523.62 768.67,524.00 768.13,524.00 C767.32,524.00 765.85,526.81 765.52,529.00 C765.48,529.28 764.73,530.62 763.84,532.00 C760.89,536.61 744.00,568.91 744.00,569.96 C744.00,570.53 743.62,571.00 743.16,571.00 C742.70,571.00 741.82,572.10 741.21,573.44 C740.28,575.47 740.38,575.93 741.80,576.22 C745.85,577.06 750.31,576.21 751.38,574.40 ZM 610.00 550.53 L 610.00 525.06 L 622.75 524.78 L 635.50 524.50 L 635.60 521.25 L 635.70 518.00 L 604.85 518.00 L 574.00 518.00 L 574.00 521.50 L 574.00 525.00 L 587.00 525.00 L 600.00 525.00 L 600.01 546.75 C600.02,558.71 600.30,570.19 600.64,572.25 C601.25,575.92 601.36,576.00 605.63,576.00 L 610.00 576.00 L 610.00 550.53 ZM 670.00 567.08 C670.00,562.18 670.27,557.45 670.61,556.58 C671.10,555.29 672.96,555.01 680.86,555.04 L 690.50 555.09 L 698.27 565.54 L 706.03 576.00 L 711.02 576.00 C714.53,576.00 716.00,575.60 716.00,574.65 C716.00,573.11 710.59,565.31 707.83,562.88 C706.82,561.99 706.00,560.89 706.00,560.43 C706.00,559.97 704.56,558.11 702.80,556.30 C700.31,553.73 699.99,553.00 701.34,553.00 C703.86,553.00 710.15,549.58 712.65,546.85 C715.76,543.47 716.95,538.11 715.88,532.35 C714.77,526.32 712.45,523.08 707.41,520.50 C703.92,518.71 701.17,518.47 681.75,518.20 L 660.00 517.89 L 660.00 546.95 L 660.00 576.00 L 665.00 576.00 L 670.00 576.00 L 670.00 567.08 ZM 559.00 453.47 C574.45,451.99 586.55,450.03 599.50,446.90 C603.90,445.83 608.17,444.83 609.00,444.67 C616.00,443.30 619.63,442.44 627.00,440.42 C660.10,431.34 692.72,418.07 722.00,401.78 C737.08,393.39 750.54,384.70 749.18,384.23 C748.74,384.08 741.44,386.95 732.94,390.61 C724.45,394.26 715.25,398.07 712.50,399.08 C709.75,400.08 703.67,402.31 699.00,404.04 C694.33,405.76 686.90,408.26 682.50,409.58 C678.10,410.90 671.58,412.87 668.00,413.96 C664.42,415.06 654.30,417.99 645.50,420.49 C636.70,422.98 625.67,426.15 621.00,427.52 C616.33,428.90 612.05,430.02 611.50,430.01 C610.95,430.00 606.45,431.07 601.50,432.39 C566.38,441.78 531.41,446.90 496.98,447.71 C475.04,448.22 469.35,447.91 454.00,445.33 C446.89,444.14 452.06,446.13 463.55,449.01 C488.45,455.26 523.33,456.89 559.00,453.47 ZM 511.00 435.64 C516.78,434.91 522.40,434.27 523.50,434.21 C531.75,433.78 575.22,424.43 592.50,419.37 C620.24,411.24 653.48,399.42 680.00,388.25 C696.94,381.12 738.83,360.31 740.99,357.95 C741.27,357.65 744.20,355.89 747.50,354.05 C755.35,349.67 769.87,339.96 777.85,333.75 C781.34,331.03 785.17,328.07 786.35,327.17 C791.90,322.93 804.96,308.75 809.10,302.48 C816.52,291.22 817.69,285.13 813.93,277.35 C811.54,272.41 803.82,266.26 798.21,264.82 C789.48,262.57 790.24,262.30 789.85,267.83 C789.52,272.58 789.64,272.88 792.16,273.38 C793.63,273.68 796.67,275.66 798.91,277.80 C802.43,281.14 803.00,282.28 803.00,285.88 C803.00,292.14 799.16,298.57 790.35,307.07 C757.75,338.52 683.51,373.44 602.50,395.42 C581.23,401.19 566.82,404.21 530.00,410.59 C528.08,410.93 518.01,411.77 507.63,412.47 C476.30,414.56 456.30,412.30 445.83,405.47 C436.26,399.23 434.23,391.23 439.48,380.40 C442.73,373.71 458.54,357.26 468.23,350.50 C489.86,335.42 527.99,316.17 561.00,303.68 C564.58,302.33 572.82,299.26 579.32,296.86 C585.83,294.46 590.41,292.35 589.51,292.17 C588.62,291.98 587.12,292.15 586.19,292.55 C585.26,292.94 583.60,293.40 582.50,293.56 C570.84,295.30 532.44,307.04 520.50,312.52 C517.75,313.78 512.80,315.83 509.50,317.07 C500.31,320.52 471.60,335.21 461.35,341.70 C431.78,360.45 411.71,382.53 410.23,397.97 C408.51,415.88 429.95,432.39 459.50,435.91 C470.64,437.23 499.54,437.08 511.00,435.64 ZM 614.00 331.03 C614.00,322.90 618.09,287.23 619.65,281.81 C622.43,272.09 629.16,267.92 644.27,266.52 C659.11,265.14 677.58,262.61 678.45,261.84 C678.97,261.38 675.78,261.00 671.35,261.00 C659.06,261.00 638.10,259.12 632.49,257.52 C625.58,255.54 621.49,251.10 619.57,243.50 C618.30,238.49 614.16,201.33 613.94,193.00 C613.88,190.68 613.81,190.65 613.04,192.56 C612.58,193.69 611.67,202.01 611.00,211.06 C610.34,220.10 609.62,228.85 609.40,230.50 C608.28,238.99 606.72,245.85 605.06,249.60 C603.45,253.23 602.44,254.07 597.36,256.03 C591.41,258.33 569.32,260.82 553.50,260.99 C539.88,261.13 549.73,263.13 578.06,265.98 C590.77,267.26 600.16,270.21 603.26,273.90 C604.59,275.48 606.24,278.96 606.94,281.63 C607.63,284.31 608.44,287.17 608.75,288.00 C609.05,288.83 609.39,291.08 609.50,293.00 C609.62,294.92 610.21,301.23 610.82,307.00 C611.43,312.77 611.95,321.69 611.97,326.81 C611.99,332.75 612.36,335.89 613.00,335.50 C613.55,335.16 614.00,333.15 614.00,331.03 ZM 774.99 281.50 C779.74,278.57 785.00,269.88 785.00,264.96 C785.00,259.95 780.12,252.61 775.09,250.05 C765.96,245.39 753.70,249.07 749.05,257.87 C747.62,260.59 747.07,270.00 748.36,270.00 C748.83,270.00 748.95,270.67 748.64,271.50 C748.32,272.33 748.53,273.00 749.09,273.00 C749.66,273.00 749.87,273.40 749.56,273.90 C749.26,274.39 749.68,275.05 750.51,275.36 C751.33,275.68 752.00,276.52 752.00,277.23 C752.00,281.94 769.14,285.12 774.99,281.50 ZM 668.00 275.05 C668.28,274.75 670.75,274.47 673.50,274.44 C678.82,274.37 683.95,273.81 701.50,271.40 C707.55,270.56 718.77,269.35 726.43,268.69 L 740.36 267.50 L 741.15 264.55 C741.58,262.93 741.74,261.41 741.51,261.17 C740.97,260.64 706.90,264.85 701.50,266.12 C699.30,266.64 695.92,267.27 694.00,267.53 C683.65,268.91 676.36,270.34 675.29,271.20 C674.63,271.73 673.67,271.91 673.16,271.60 C672.21,271.01 656.08,274.17 650.24,276.09 C644.09,278.11 647.90,278.64 657.70,277.12 C663.09,276.28 667.72,275.35 668.00,275.05 ZM 427.18 555.25 C427.38,554.84 429.96,549.78 432.93,544.00 C435.89,538.22 439.04,532.05 439.91,530.28 C440.78,528.51 441.78,527.05 442.11,527.03 C442.45,527.01 443.53,529.14 444.50,531.75 C445.48,534.36 446.60,536.95 446.98,537.50 C447.37,538.05 449.80,542.44 452.39,547.25 L 457.10 556.00 L 441.97 556.00 C433.64,556.00 426.99,555.66 427.18,555.25 ZM 770.75 556.23 C765.94,556.06 762.00,555.68 762.00,555.39 C762.00,555.10 765.24,548.64 769.19,541.03 C773.95,531.89 776.83,527.38 777.69,527.71 C778.41,527.99 779.00,529.01 779.00,529.97 C779.00,530.94 779.93,532.92 781.07,534.37 C782.21,535.81 782.78,537.01 782.32,537.02 C781.87,537.02 781.97,537.36 782.55,537.77 C783.49,538.42 792.12,555.30 791.68,555.60 C790.95,556.09 777.91,556.49 770.75,556.23 ZM 670.50 542.75 C670.15,540.41 670.01,535.58 670.18,532.00 L 670.50 525.50 L 683.50 525.50 C698.09,525.50 702.22,526.60 704.55,531.09 C708.00,537.78 705.08,543.99 697.58,545.87 C695.13,546.49 688.17,547.00 682.12,547.00 L 671.12 547.00 L 670.50 542.75 Z" fill="rgb(254,254,254)"/>
</g>
</svg>