<svg xmlns="http://www.w3.org/2000/svg" width="1254" height="836" viewBox="0 0 1254 836">
<g>
<path d="M 532.00 433.12 C517.38,435.73 512.65,436.11 490.50,436.47 C462.92,436.92 456.77,436.40 443.50,432.51 C423.47,426.65 410.00,413.67 410.00,400.24 C410.00,391.01 416.90,378.84 428.89,366.94 C455.30,340.70 499.85,317.59 558.50,299.70 C567.19,297.05 589.21,291.90 590.31,292.27 C590.89,292.46 588.47,293.67 584.93,294.96 C546.43,308.98 524.84,318.28 500.00,331.52 C472.30,346.29 454.05,360.00 444.12,373.50 C430.86,391.52 435.30,403.36 458.00,410.51 C465.26,412.79 494.70,413.64 513.02,412.10 C545.75,409.33 583.82,401.67 621.00,390.36 C627.33,388.44 634.53,386.26 637.00,385.52 C641.78,384.09 666.12,375.44 674.50,372.20 C744.52,345.09 802.96,306.34 802.99,287.00 C803.00,281.69 799.71,277.18 793.98,274.67 C790.83,273.29 789.21,272.02 789.52,271.17 C789.78,270.44 790.00,268.30 790.00,266.42 C790.00,262.29 791.42,262.06 799.21,264.98 C812.83,270.08 818.78,280.88 814.55,292.85 C811.10,302.63 797.06,319.10 782.46,330.50 C760.93,347.32 733.58,363.60 701.50,378.70 C685.03,386.45 658.93,397.47 651.00,400.02 C649.62,400.46 644.67,402.25 640.00,404.00 C606.12,416.68 570.75,426.22 532.00,433.12 ZM 544.00 454.96 C528.24,455.95 519.28,456.05 510.50,455.34 C508.30,455.16 500.88,454.55 494.00,453.99 C477.44,452.64 446.53,446.14 448.29,444.38 C448.51,444.15 452.03,444.69 456.10,445.57 C466.44,447.80 494.48,448.54 513.66,447.08 C537.62,445.25 566.19,440.83 588.50,435.49 C608.97,430.59 616.14,428.80 622.50,427.01 C626.35,425.92 636.03,423.20 644.00,420.96 C685.48,409.30 724.40,395.34 746.85,384.07 C752.55,381.21 757.39,379.06 757.62,379.29 C758.25,379.92 734.62,395.11 722.95,401.58 C668.54,431.72 603.08,451.25 544.00,454.96 ZM 670.78 565.75 L 670.50 576.50 L 665.96 576.80 C663.47,576.96 661.10,576.77 660.71,576.38 C660.32,575.99 660.00,562.69 660.00,546.83 L 660.00 518.00 L 678.95 518.00 C700.71,518.00 706.74,518.95 711.52,523.15 C715.69,526.81 717.72,534.63 716.08,540.72 C714.82,545.40 709.79,550.48 704.69,552.25 L 700.92 553.56 L 709.94 564.82 C716.12,572.53 718.54,576.24 717.60,576.60 C716.86,576.89 714.08,576.98 711.43,576.81 L 706.62 576.50 L 698.56 565.81 L 690.50 555.12 L 680.78 555.06 L 671.07 555.00 ZM 615.46 315.50 C613.60,333.80 612.01,337.91 611.99,324.45 C611.98,314.39 609.71,291.34 607.91,283.00 C606.35,275.72 601.62,270.87 594.00,268.74 C589.60,267.50 554.31,262.97 549.25,262.99 C548.56,263.00 548.00,262.62 548.00,262.15 C548.00,261.68 555.99,261.01 565.75,260.66 C585.55,259.95 590.87,259.12 598.69,255.54 C602.98,253.58 604.39,252.31 605.66,249.29 C607.67,244.53 609.67,231.44 611.07,214.00 C612.38,197.66 613.15,191.17 613.62,192.50 C613.81,193.05 615.08,204.34 616.43,217.60 C619.00,242.74 620.32,248.36 624.81,253.22 C629.67,258.49 642.39,260.92 665.45,260.97 C673.64,260.99 679.01,261.37 678.45,261.89 C677.47,262.81 659.11,265.44 646.00,266.53 C630.65,267.82 623.70,271.28 620.52,279.25 C618.81,283.52 618.46,286.04 615.46,315.50 ZM 753.82 570.23 L 750.50 576.50 L 745.25 576.80 C742.36,576.97 740.00,576.81 740.00,576.45 C740.00,576.09 742.41,571.46 745.36,566.15 C748.30,560.84 755.32,547.82 760.95,537.20 L 771.19 517.91 L 777.34 518.20 L 783.50 518.50 L 793.54 537.50 C799.06,547.95 805.92,560.81 808.79,566.09 C811.65,571.36 813.70,575.97 813.33,576.34 C812.97,576.70 810.52,577.00 807.89,577.00 L 803.11 577.00 L 796.50 564.50 L 776.82 564.23 L 757.13 563.96 ZM 422.50 564.02 L 416.22 576.50 L 411.32 576.79 C408.63,576.96 406.16,576.83 405.84,576.51 C405.52,576.19 408.38,570.20 412.20,563.21 C416.02,556.22 422.98,543.17 427.67,534.20 L 436.19 517.91 L 442.29 518.20 L 448.39 518.50 L 463.20 546.49 C471.34,561.89 478.00,575.08 478.00,575.80 C478.00,576.74 476.57,577.02 472.81,576.80 L 467.61 576.50 L 464.37 570.50 L 461.14 564.50 ZM 543.77 575.04 C539.46,576.94 536.32,577.42 526.50,577.72 C515.85,578.04 513.77,577.81 508.00,575.72 C497.71,571.98 496.72,571.26 497.48,568.17 C498.50,564.04 499.68,563.38 502.76,565.19 C507.76,568.12 516.24,570.00 524.43,569.99 C538.51,569.98 545.00,566.67 545.00,559.49 C545.00,556.21 544.62,555.72 540.73,554.00 C538.39,552.96 533.32,551.62 529.48,551.01 C513.63,548.50 506.39,546.06 502.37,541.86 C499.87,539.26 499.50,538.10 499.50,532.95 C499.50,527.50 499.78,526.75 503.06,523.47 C507.74,518.79 515.53,516.65 527.50,516.74 C536.37,516.80 543.81,517.97 549.30,520.16 C551.77,521.15 552.02,521.65 551.44,524.39 C551.08,526.10 550.48,527.84 550.10,528.25 C549.72,528.66 546.85,528.09 543.73,527.00 C539.39,525.47 535.48,525.00 527.17,525.00 C517.51,525.00 515.92,525.25 512.90,527.28 C505.19,532.46 509.59,538.94 522.21,540.99 C537.07,543.41 548.07,546.69 551.13,549.62 C559.26,557.42 555.67,569.83 543.77,575.04 ZM 773.79 282.09 C761.34,288.50 744.83,276.37 747.39,262.71 C749.46,251.68 763.36,244.78 774.30,249.35 C778.76,251.21 783.76,257.21 784.60,261.69 C786.11,269.74 781.73,278.01 773.79,282.09 ZM 610.50 525.00 L 610.50 576.50 L 605.96 576.80 C603.47,576.96 601.10,576.77 600.71,576.38 C600.32,575.99 600.00,564.27 600.00,550.33 L 600.00 525.00 L 573.00 525.00 L 573.00 518.00 L 636.00 518.00 L 636.00 525.00 ZM 671.00 524.74 L 671.00 547.00 L 682.75 546.99 C689.21,546.99 696.17,546.53 698.20,545.96 C702.86,544.67 706.00,540.78 706.00,536.30 C706.00,527.89 701.93,525.81 684.25,525.20 ZM 652.00 278.07 C648.42,278.64 644.49,279.31 643.25,279.57 C642.01,279.83 641.00,279.63 641.00,279.14 C641.00,278.64 642.01,278.02 643.25,277.76 C644.49,277.50 652.70,275.70 661.50,273.77 C678.04,270.13 691.55,267.77 720.16,263.49 C741.96,260.23 742.00,260.23 742.00,263.98 C742.00,264.14 742.00,264.28 742.00,264.42 C742.01,265.09 742.02,265.61 741.82,266.03 C741.11,267.55 737.71,267.82 722.00,269.50 C702.37,271.60 660.54,276.72 652.00,278.07 ZM 762.98 554.75 C763.00,555.69 766.48,556.00 777.00,556.00 C784.70,556.00 791.02,555.66 791.05,555.25 C791.13,554.20 777.61,527.07 777.00,527.05 C776.26,527.02 762.96,553.29 762.98,554.75 ZM 428.00 554.86 C428.00,556.32 454.59,556.46 455.49,555.02 C456.09,554.05 443.04,528.06 441.93,528.02 C441.19,527.99 428.00,553.40 428.00,554.86 Z" fill="rgb(33,23,23)"/>
<path d="M 0.00 0.00 L 1254.00 0.00 L 1254.00 836.00 L 0.00 836.00 ZM 532.00 433.12 C570.75,426.22 606.12,416.68 640.00,404.00 C644.67,402.25 649.62,400.46 651.00,400.02 C658.93,397.47 685.03,386.45 701.50,378.70 C733.58,363.60 760.93,347.32 782.46,330.50 C797.06,319.10 811.10,302.63 814.55,292.85 C818.78,280.88 812.83,270.08 799.21,264.98 C791.42,262.06 790.00,262.29 790.00,266.42 C790.00,268.30 789.78,270.44 789.52,271.17 C789.21,272.02 790.83,273.29 793.98,274.67 C799.71,277.18 803.00,281.69 802.99,287.00 C802.96,306.34 744.52,345.09 674.50,372.20 C666.12,375.44 641.78,384.09 637.00,385.52 C634.53,386.26 627.33,388.44 621.00,390.36 C583.82,401.67 545.75,409.33 513.02,412.10 C494.70,413.64 465.26,412.79 458.00,410.51 C435.30,403.36 430.86,391.52 444.12,373.50 C454.05,360.00 472.30,346.29 500.00,331.52 C524.84,318.28 546.43,308.98 584.93,294.96 C588.47,293.67 590.89,292.46 590.31,292.27 C589.21,291.90 567.19,297.05 558.50,299.70 C499.85,317.59 455.30,340.70 428.89,366.94 C416.90,378.84 410.00,391.01 410.00,400.24 C410.00,413.67 423.47,426.65 443.50,432.51 C456.77,436.40 462.92,436.92 490.50,436.47 C512.65,436.11 517.38,435.73 532.00,433.12 ZM 544.00 454.96 C603.08,451.25 668.54,431.72 722.95,401.58 C734.62,395.11 758.25,379.92 757.62,379.29 C757.39,379.06 752.55,381.21 746.85,384.07 C724.40,395.34 685.48,409.30 644.00,420.96 C636.03,423.20 626.35,425.92 622.50,427.01 C616.14,428.80 608.97,430.59 588.50,435.49 C566.19,440.83 537.62,445.25 513.66,447.08 C494.48,448.54 466.44,447.80 456.10,445.57 C452.51,444.79 449.36,444.28 448.50,444.33 C448.61,444.27 448.72,444.19 448.84,444.12 C449.81,443.51 449.39,443.12 447.34,442.72 C444.03,442.09 442.93,442.71 445.03,444.04 C446.59,445.03 447.04,445.17 448.22,444.50 C447.82,446.41 477.79,452.67 494.00,453.99 C500.88,454.55 508.30,455.16 510.50,455.34 C519.28,456.05 528.24,455.95 544.00,454.96 ZM 670.78 565.75 L 671.07 555.00 L 680.78 555.06 L 690.50 555.12 L 698.56 565.81 L 706.62 576.50 L 711.43 576.81 C714.08,576.98 716.86,576.89 717.60,576.60 C718.54,576.24 716.12,572.53 709.94,564.82 L 700.92 553.56 L 704.69 552.25 C709.79,550.48 714.82,545.40 716.08,540.72 C717.72,534.63 715.69,526.81 711.52,523.15 C706.74,518.95 700.71,518.00 678.95,518.00 L 660.00 518.00 L 660.00 546.83 C660.00,562.69 660.32,575.99 660.71,576.38 C661.10,576.77 663.47,576.96 665.96,576.80 L 670.50 576.50 ZM 615.46 315.50 C618.46,286.04 618.81,283.52 620.52,279.25 C623.70,271.28 630.65,267.82 646.00,266.53 C659.11,265.44 677.47,262.81 678.45,261.89 C679.01,261.37 673.64,260.99 665.45,260.97 C642.39,260.92 629.67,258.49 624.81,253.22 C620.32,248.36 619.00,242.74 616.43,217.60 C615.08,204.34 613.81,193.05 613.62,192.50 C613.58,192.39 613.53,192.33 613.49,192.33 C614.12,189.92 613.95,188.91 613.00,189.50 C612.45,189.84 612.04,191.55 612.10,193.31 C612.19,196.36 612.24,196.39 613.00,194.00 L 613.02 193.92 C612.56,196.70 611.93,203.20 611.07,214.00 C609.67,231.44 607.67,244.53 605.66,249.29 C604.39,252.31 602.98,253.58 598.69,255.54 C590.87,259.12 585.55,259.95 565.75,260.66 C555.99,261.01 548.00,261.68 548.00,262.15 C548.00,262.62 548.56,263.00 549.25,262.99 C554.31,262.97 589.60,267.50 594.00,268.74 C601.62,270.87 606.35,275.72 607.91,283.00 C609.71,291.34 611.98,314.39 611.99,324.45 C612.01,337.91 613.60,333.80 615.46,315.50 ZM 753.82 570.23 L 757.13 563.96 L 776.82 564.23 L 796.50 564.50 L 803.11 577.00 L 807.89 577.00 C810.52,577.00 812.97,576.70 813.33,576.34 C813.70,575.97 811.65,571.36 808.79,566.09 C805.92,560.81 799.06,547.95 793.54,537.50 L 783.50 518.50 L 777.34 518.20 L 771.19 517.91 L 760.95 537.20 C755.32,547.82 748.30,560.84 745.36,566.15 C742.41,571.46 740.00,576.09 740.00,576.45 C740.00,576.81 742.36,576.97 745.25,576.80 L 750.50 576.50 ZM 422.50 564.02 L 461.14 564.50 L 464.37 570.50 L 467.61 576.50 L 472.81 576.80 C476.57,577.02 478.00,576.74 478.00,575.80 C478.00,575.08 471.34,561.89 463.20,546.49 L 448.39 518.50 L 442.29 518.20 L 436.19 517.91 L 427.67 534.20 C422.98,543.17 416.02,556.22 412.20,563.21 C408.38,570.20 405.52,576.19 405.84,576.51 C406.16,576.83 408.63,576.96 411.32,576.79 L 416.22 576.50 ZM 543.77 575.04 C555.67,569.83 559.26,557.42 551.13,549.62 C548.07,546.69 537.07,543.41 522.21,540.99 C509.59,538.94 505.19,532.46 512.90,527.28 C515.92,525.25 517.51,525.00 527.17,525.00 C535.48,525.00 539.39,525.47 543.73,527.00 C546.85,528.09 549.72,528.66 550.10,528.25 C550.48,527.84 551.08,526.10 551.44,524.39 C552.02,521.65 551.77,521.15 549.30,520.16 C543.81,517.97 536.37,516.80 527.50,516.74 C515.53,516.65 507.74,518.79 503.06,523.47 C499.78,526.75 499.50,527.50 499.50,532.95 C499.50,538.10 499.87,539.26 502.37,541.86 C506.39,546.06 513.63,548.50 529.48,551.01 C533.32,551.62 538.39,552.96 540.73,554.00 C544.62,555.72 545.00,556.21 545.00,559.49 C545.00,566.67 538.51,569.98 524.43,569.99 C516.24,570.00 507.76,568.12 502.76,565.19 C499.68,563.38 498.50,564.04 497.48,568.17 C496.72,571.26 497.71,571.98 508.00,575.72 C513.77,577.81 515.85,578.04 526.50,577.72 C536.32,577.42 539.46,576.94 543.77,575.04 ZM 773.79 282.09 C781.73,278.01 786.11,269.74 784.60,261.69 C783.76,257.21 778.76,251.21 774.30,249.35 C763.36,244.78 749.46,251.68 747.39,262.71 C744.83,276.37 761.34,288.50 773.79,282.09 ZM 610.50 525.00 L 636.00 525.00 L 636.00 518.00 L 573.00 518.00 L 573.00 525.00 L 600.00 525.00 L 600.00 550.33 C600.00,564.27 600.32,575.99 600.71,576.38 C601.10,576.77 603.47,576.96 605.96,576.80 L 610.50 576.50 ZM 671.00 524.74 L 684.25 525.20 C701.93,525.81 706.00,527.89 706.00,536.30 C706.00,540.78 702.86,544.67 698.20,545.96 C696.17,546.53 689.21,546.99 682.75,546.99 L 671.00 547.00 ZM 652.00 278.07 C660.54,276.72 702.37,271.60 722.00,269.50 C737.71,267.82 741.11,267.55 741.82,266.03 C742.02,265.61 742.01,265.09 742.00,264.42 C742.00,264.28 742.00,264.14 742.00,263.98 C742.00,260.23 741.96,260.23 720.16,263.49 C691.55,267.77 678.04,270.13 661.50,273.77 C652.70,275.70 644.49,277.50 643.25,277.76 C642.01,278.02 641.00,278.64 641.00,279.14 C641.00,279.63 642.01,279.83 643.25,279.57 C644.49,279.31 648.42,278.64 652.00,278.07 ZM 762.98 554.75 C762.96,553.29 776.26,527.02 777.00,527.05 C777.61,527.07 791.13,554.20 791.05,555.25 C791.02,555.66 784.70,556.00 777.00,556.00 C766.48,556.00 763.00,555.69 762.98,554.75 ZM 428.00 554.86 C428.00,553.40 441.19,527.99 441.93,528.02 C443.04,528.06 456.09,554.05 455.49,555.02 C454.59,556.46 428.00,556.32 428.00,554.86 ZM 612.00 335.06 C612.00,336.13 612.45,337.00 613.00,337.00 C613.55,337.00 614.00,335.85 614.00,334.44 C614.00,332.99 613.57,332.15 613.00,332.50 C612.45,332.84 612.00,333.99 612.00,335.06 Z" fill="rgb(254,254,254)"/>
<path d="M 445.03 444.04 C442.93,442.71 444.03,442.09 447.34,442.72 C449.39,443.12 449.81,443.51 448.84,444.12 C447.15,445.19 446.84,445.18 445.03,444.04 ZM 612.00 335.06 C612.00,333.99 612.45,332.84 613.00,332.50 C613.57,332.15 614.00,332.99 614.00,334.44 C614.00,335.85 613.55,337.00 613.00,337.00 C612.45,337.00 612.00,336.13 612.00,335.06 ZM 612.10 193.31 C612.04,191.55 612.45,189.84 613.00,189.50 C614.15,188.79 614.15,190.41 613.00,194.00 C612.24,196.39 612.19,196.36 612.10,193.31 Z" fill="rgb(177,173,170)"/>
</g>
</svg>