<svg xmlns="http://www.w3.org/2000/svg" width="1254" height="836" viewBox="0 0 1254 836">
<g>
<path d="M 532.00 433.12 C517.47,435.71 512.58,436.11 491.00,436.46 C463.53,436.92 456.46,436.33 443.50,432.52 C423.18,426.55 410.00,413.75 410.02,400.00 C410.04,383.49 431.53,359.73 464.52,339.72 C494.60,321.47 536.57,304.71 576.38,295.05 C590.92,291.52 594.49,291.48 584.93,294.96 C570.62,300.17 550.29,307.88 547.00,309.35 C545.08,310.21 538.10,313.24 531.50,316.10 C517.35,322.23 498.46,331.95 484.50,340.29 C452.33,359.51 433.44,381.14 437.13,394.52 C439.08,401.57 445.71,406.65 458.00,410.50 C469.88,414.23 509.21,413.53 539.50,409.05 C609.07,398.78 698.07,367.78 751.50,335.20 C785.03,314.76 802.97,297.97 802.99,287.00 C803.00,281.69 799.71,277.18 793.98,274.67 C790.83,273.29 789.21,272.02 789.52,271.17 C789.78,270.44 790.00,268.30 790.00,266.42 C790.00,262.29 791.42,262.06 799.21,264.98 C812.72,270.04 818.74,280.98 814.55,292.85 C811.11,302.60 797.96,318.09 783.10,329.89 C752.99,353.81 707.93,378.16 659.00,396.96 C611.21,415.32 576.58,425.18 532.00,433.12 ZM 544.00 454.96 C528.28,455.95 519.36,456.05 510.50,455.35 C489.37,453.66 480.03,452.61 471.50,450.92 C460.44,448.74 447.53,445.13 448.25,444.42 C448.50,444.17 452.03,444.69 456.10,445.57 C478.21,450.35 526.97,447.77 569.00,439.59 C627.82,428.15 710.52,402.29 747.35,383.82 C752.78,381.10 757.39,379.05 757.60,379.27 C757.96,379.63 747.67,386.59 733.50,395.56 C730.20,397.66 718.95,403.70 708.50,409.01 C656.87,435.20 598.38,451.54 544.00,454.96 ZM 670.78 565.75 L 670.50 576.50 L 665.96 576.80 C663.47,576.96 661.10,576.77 660.71,576.38 C660.32,575.99 660.00,562.69 660.00,546.83 L 660.00 518.00 L 678.95 518.00 C700.71,518.00 706.74,518.95 711.52,523.15 C715.69,526.81 717.72,534.63 716.08,540.72 C714.82,545.40 709.79,550.48 704.69,552.25 L 700.92 553.56 L 709.86 564.71 C714.77,570.85 718.54,576.12 718.23,576.43 C717.92,576.75 715.29,577.00 712.38,577.00 L 707.09 577.00 L 698.79 566.06 L 690.50 555.11 L 680.78 555.06 L 671.07 555.00 ZM 614.48 324.75 C613.51,335.06 612.00,334.79 611.99,324.31 C611.98,314.44 609.71,291.31 607.95,283.17 C606.28,275.43 602.41,271.47 594.14,269.04 C588.85,267.48 555.66,263.00 549.43,263.00 C548.64,263.00 548.00,262.62 548.00,262.15 C548.00,261.68 555.99,261.01 565.75,260.66 C585.43,259.95 590.88,259.12 598.48,255.64 C602.43,253.83 604.07,252.38 605.45,249.46 C607.54,245.06 609.46,233.22 611.01,215.17 C612.99,192.16 613.27,189.49 613.59,190.50 C613.76,191.05 614.83,201.40 615.96,213.50 C618.79,243.74 619.95,248.79 625.25,253.77 C630.41,258.61 643.83,261.00 665.92,261.00 C673.84,261.00 679.01,261.37 678.45,261.89 C677.47,262.81 659.11,265.44 646.00,266.53 C630.70,267.81 623.70,271.29 620.54,279.18 C619.09,282.82 616.90,299.31 614.48,324.75 ZM 753.82 570.23 L 750.50 576.50 L 745.25 576.80 C742.36,576.97 740.00,576.81 740.00,576.45 C740.00,576.09 742.41,571.46 745.36,566.15 C748.30,560.84 755.32,547.82 760.95,537.20 L 771.19 517.91 L 777.34 518.20 L 783.50 518.50 L 793.54 537.50 C799.06,547.95 805.92,560.81 808.79,566.09 C811.65,571.36 813.70,575.97 813.33,576.34 C812.97,576.70 810.52,577.00 807.89,577.00 L 803.11 577.00 L 796.50 564.50 L 776.82 564.23 L 757.13 563.96 ZM 422.43 564.00 L 416.02 577.00 L 411.18 577.00 C408.51,577.00 406.09,576.76 405.80,576.46 C405.50,576.17 408.38,570.20 412.20,563.21 C416.02,556.22 422.98,543.17 427.67,534.20 L 436.19 517.91 L 442.28 518.20 L 448.36 518.50 L 463.18 546.50 C471.33,561.90 478.00,575.08 478.00,575.80 C478.00,576.75 476.55,577.02 472.75,576.80 L 467.50 576.50 L 464.19 570.25 L 460.89 564.00 ZM 543.77 575.04 C539.46,576.92 536.40,577.40 527.00,577.63 C514.53,577.94 511.19,577.39 502.62,573.60 C496.65,570.96 495.71,569.12 498.44,565.44 C499.73,563.70 500.12,563.65 502.19,564.92 C509.50,569.40 527.19,571.46 536.38,568.91 C541.83,567.40 545.00,563.94 545.00,559.49 C545.00,556.21 544.62,555.72 540.73,554.00 C538.39,552.96 533.32,551.62 529.48,551.01 C513.63,548.50 506.39,546.06 502.37,541.86 C499.87,539.26 499.50,538.10 499.50,532.95 C499.50,527.50 499.78,526.75 503.06,523.47 C507.81,518.72 515.51,516.64 528.00,516.72 C537.05,516.78 543.12,517.77 549.30,520.19 C551.77,521.16 552.02,521.64 551.44,524.39 C551.08,526.10 550.48,527.84 550.10,528.25 C549.72,528.66 546.85,528.09 543.73,527.00 C535.57,524.13 517.93,524.14 513.22,527.01 C509.44,529.31 508.54,531.04 509.38,534.38 C510.16,537.50 515.05,539.75 524.75,541.46 C539.56,544.07 548.08,546.70 551.14,549.63 C559.27,557.42 555.67,569.84 543.77,575.04 ZM 772.77 282.45 C767.91,284.48 763.43,284.38 758.46,282.12 C750.95,278.71 746.02,270.05 747.39,262.71 C749.98,248.94 768.95,243.07 779.37,252.81 C788.92,261.74 785.49,277.13 772.77,282.45 ZM 610.50 525.00 L 610.50 576.50 L 605.96 576.80 C603.47,576.96 601.10,576.77 600.71,576.38 C600.32,575.99 600.00,564.27 600.00,550.33 L 600.00 525.00 L 573.00 525.00 L 573.00 518.00 L 636.00 518.00 L 636.00 525.00 ZM 671.00 525.00 L 671.00 547.00 L 682.75 546.99 C696.37,546.99 701.11,545.95 703.95,542.33 C706.85,538.65 706.70,532.60 703.63,529.54 C700.21,526.12 695.00,525.01 682.25,525.01 ZM 682.28 274.13 C668.96,275.76 654.43,277.68 649.99,278.39 C645.55,279.09 641.72,279.35 641.47,278.96 C641.23,278.56 642.26,277.98 643.77,277.66 C645.27,277.34 652.35,275.75 659.50,274.13 C674.86,270.63 690.21,267.94 717.50,263.93 L 719.62 263.62 C736.89,261.09 740.84,260.51 741.74,261.90 C742.01,262.31 742.01,262.90 742.00,263.67 C742.00,263.77 742.00,263.87 742.00,263.98 C742.00,264.14 742.00,264.28 742.00,264.42 C742.01,265.09 742.02,265.61 741.82,266.03 C741.11,267.55 737.71,267.82 722.00,269.50 C713.47,270.41 695.60,272.49 682.28,274.13 ZM 762.01 555.25 C762.00,555.66 768.53,556.00 776.50,556.00 C784.47,556.00 791.02,555.66 791.05,555.25 C791.13,554.09 777.58,527.05 776.90,527.02 C776.57,527.01 775.45,528.91 774.41,531.25 C773.36,533.59 770.15,539.78 767.26,545.00 C764.38,550.22 762.02,554.84 762.01,555.25 ZM 428.00 554.86 C428.00,556.32 454.59,556.46 455.49,555.02 C456.09,554.05 443.04,528.06 441.93,528.02 C441.19,527.99 428.00,553.40 428.00,554.86 Z" fill="rgb(3,3,3)"/>
<path d="M 0.00 0.00 L 1254.00 0.00 L 1254.00 836.00 L 0.00 836.00 ZM 532.00 433.12 C576.58,425.18 611.21,415.32 659.00,396.96 C707.93,378.16 752.99,353.81 783.10,329.89 C797.96,318.09 811.11,302.60 814.55,292.85 C818.74,280.98 812.72,270.04 799.21,264.98 C791.42,262.06 790.00,262.29 790.00,266.42 C790.00,268.30 789.78,270.44 789.52,271.17 C789.21,272.02 790.83,273.29 793.98,274.67 C799.71,277.18 803.00,281.69 802.99,287.00 C802.97,297.97 785.03,314.76 751.50,335.20 C698.07,367.78 609.07,398.78 539.50,409.05 C509.21,413.53 469.88,414.23 458.00,410.50 C445.71,406.65 439.08,401.57 437.13,394.52 C433.44,381.14 452.33,359.51 484.50,340.29 C498.46,331.95 517.35,322.23 531.50,316.10 C538.10,313.24 545.08,310.21 547.00,309.35 C550.29,307.88 570.62,300.17 584.93,294.96 C594.49,291.48 590.92,291.52 576.38,295.05 C536.57,304.71 494.60,321.47 464.52,339.72 C431.53,359.73 410.04,383.49 410.02,400.00 C410.00,413.75 423.18,426.55 443.50,432.52 C456.46,436.33 463.53,436.92 491.00,436.46 C512.58,436.11 517.47,435.71 532.00,433.12 ZM 544.00 454.96 C598.38,451.54 656.87,435.20 708.50,409.01 C718.95,403.70 730.20,397.66 733.50,395.56 C747.67,386.59 757.96,379.63 757.60,379.27 C757.39,379.05 752.78,381.10 747.35,383.82 C710.52,402.29 627.82,428.15 569.00,439.59 C526.97,447.77 478.21,450.35 456.10,445.57 C452.03,444.69 448.50,444.17 448.25,444.42 C447.53,445.13 460.44,448.74 471.50,450.92 C480.03,452.61 489.37,453.66 510.50,455.35 C519.36,456.05 528.28,455.95 544.00,454.96 ZM 670.78 565.75 L 671.07 555.00 L 680.78 555.06 L 690.50 555.11 L 698.79 566.06 L 707.09 577.00 L 712.38 577.00 C715.29,577.00 717.92,576.75 718.23,576.43 C718.54,576.12 714.77,570.85 709.86,564.71 L 700.92 553.56 L 704.69 552.25 C709.79,550.48 714.82,545.40 716.08,540.72 C717.72,534.63 715.69,526.81 711.52,523.15 C706.74,518.95 700.71,518.00 678.95,518.00 L 660.00 518.00 L 660.00 546.83 C660.00,562.69 660.32,575.99 660.71,576.38 C661.10,576.77 663.47,576.96 665.96,576.80 L 670.50 576.50 ZM 614.48 324.75 C616.90,299.31 619.09,282.82 620.54,279.18 C623.70,271.29 630.70,267.81 646.00,266.53 C659.11,265.44 677.47,262.81 678.45,261.89 C679.01,261.37 673.84,261.00 665.92,261.00 C643.83,261.00 630.41,258.61 625.25,253.77 C619.95,248.79 618.79,243.74 615.96,213.50 C614.83,201.40 613.76,191.05 613.59,190.50 C613.27,189.49 612.99,192.16 611.01,215.17 C609.46,233.22 607.54,245.06 605.45,249.46 C604.07,252.38 602.43,253.83 598.48,255.64 C590.88,259.12 585.43,259.95 565.75,260.66 C555.99,261.01 548.00,261.68 548.00,262.15 C548.00,262.62 548.64,263.00 549.43,263.00 C555.66,263.00 588.85,267.48 594.14,269.04 C602.41,271.47 606.28,275.43 607.95,283.17 C609.71,291.31 611.98,314.44 611.99,324.31 C612.00,334.79 613.51,335.06 614.48,324.75 ZM 753.82 570.23 L 757.13 563.96 L 776.82 564.23 L 796.50 564.50 L 803.11 577.00 L 807.89 577.00 C810.52,577.00 812.97,576.70 813.33,576.34 C813.70,575.97 811.65,571.36 808.79,566.09 C805.92,560.81 799.06,547.95 793.54,537.50 L 783.50 518.50 L 777.34 518.20 L 771.19 517.91 L 760.95 537.20 C755.32,547.82 748.30,560.84 745.36,566.15 C742.41,571.46 740.00,576.09 740.00,576.45 C740.00,576.81 742.36,576.97 745.25,576.80 L 750.50 576.50 ZM 422.43 564.00 L 460.89 564.00 L 464.19 570.25 L 467.50 576.50 L 472.75 576.80 C476.55,577.02 478.00,576.75 478.00,575.80 C478.00,575.08 471.33,561.90 463.18,546.50 L 448.36 518.50 L 442.28 518.20 L 436.19 517.91 L 427.67 534.20 C422.98,543.17 416.02,556.22 412.20,563.21 C408.38,570.20 405.50,576.17 405.80,576.46 C406.09,576.76 408.51,577.00 411.18,577.00 L 416.02 577.00 ZM 543.77 575.04 C555.67,569.84 559.27,557.42 551.14,549.63 C548.08,546.70 539.56,544.07 524.75,541.46 C515.05,539.75 510.16,537.50 509.38,534.38 C508.54,531.04 509.44,529.31 513.22,527.01 C517.93,524.14 535.57,524.13 543.73,527.00 C546.85,528.09 549.72,528.66 550.10,528.25 C550.48,527.84 551.08,526.10 551.44,524.39 C552.02,521.64 551.77,521.16 549.30,520.19 C543.12,517.77 537.05,516.78 528.00,516.72 C515.51,516.64 507.81,518.72 503.06,523.47 C499.78,526.75 499.50,527.50 499.50,532.95 C499.50,538.10 499.87,539.26 502.37,541.86 C506.39,546.06 513.63,548.50 529.48,551.01 C533.32,551.62 538.39,552.96 540.73,554.00 C544.62,555.72 545.00,556.21 545.00,559.49 C545.00,563.94 541.83,567.40 536.38,568.91 C527.19,571.46 509.50,569.40 502.19,564.92 C500.12,563.65 499.73,563.70 498.44,565.44 C495.71,569.12 496.65,570.96 502.62,573.60 C511.19,577.39 514.53,577.94 527.00,577.63 C536.40,577.40 539.46,576.92 543.77,575.04 ZM 772.77 282.45 C785.49,277.13 788.92,261.74 779.37,252.81 C768.95,243.07 749.98,248.94 747.39,262.71 C746.02,270.05 750.95,278.71 758.46,282.12 C763.43,284.38 767.91,284.48 772.77,282.45 ZM 610.50 525.00 L 636.00 525.00 L 636.00 518.00 L 573.00 518.00 L 573.00 525.00 L 600.00 525.00 L 600.00 550.33 C600.00,564.27 600.32,575.99 600.71,576.38 C601.10,576.77 603.47,576.96 605.96,576.80 L 610.50 576.50 ZM 671.00 525.00 L 682.25 525.01 C695.00,525.01 700.21,526.12 703.63,529.54 C706.70,532.60 706.85,538.65 703.95,542.33 C701.11,545.95 696.37,546.99 682.75,546.99 L 671.00 547.00 ZM 682.28 274.13 C695.60,272.49 713.47,270.41 722.00,269.50 C737.71,267.82 741.11,267.55 741.82,266.03 C742.02,265.61 742.01,265.09 742.00,264.42 C742.00,264.28 742.00,264.14 742.00,263.98 C742.00,263.87 742.00,263.77 742.00,263.67 C742.01,262.90 742.01,262.31 741.74,261.90 C740.84,260.51 736.89,261.09 719.62,263.62 L 717.50 263.93 C690.21,267.94 674.86,270.63 659.50,274.13 C652.35,275.75 645.27,277.34 643.77,277.66 C642.26,277.98 641.23,278.56 641.47,278.96 C641.72,279.35 645.55,279.09 649.99,278.39 C654.43,277.68 668.96,275.76 682.28,274.13 ZM 762.01 555.25 C762.02,554.84 764.38,550.22 767.26,545.00 C770.15,539.78 773.36,533.59 774.41,531.25 C775.45,528.91 776.57,527.01 776.90,527.02 C777.58,527.05 791.13,554.09 791.05,555.25 C791.02,555.66 784.47,556.00 776.50,556.00 C768.53,556.00 762.00,555.66 762.01,555.25 ZM 428.00 554.86 C428.00,553.40 441.19,527.99 441.93,528.02 C443.04,528.06 456.09,554.05 455.49,555.02 C454.59,556.46 428.00,556.32 428.00,554.86 ZM 445.03 444.04 C446.89,445.21 447.74,445.23 448.43,444.11 C448.73,443.63 447.99,442.97 446.78,442.65 C444.08,441.95 443.03,442.78 445.03,444.04 ZM 612.00 335.06 C612.00,336.13 612.45,337.00 613.00,337.00 C613.55,337.00 614.00,335.85 614.00,334.44 C614.00,332.99 613.57,332.15 613.00,332.50 C612.45,332.84 612.00,333.99 612.00,335.06 ZM 639.00 279.00 C639.00,279.55 639.70,280.00 640.56,280.00 C641.42,280.00 641.84,279.55 641.50,279.00 C641.16,278.45 640.46,278.00 639.94,278.00 C639.42,278.00 639.00,278.45 639.00,279.00 Z" fill="rgb(254,254,254)"/>
<path d="M 445.03 444.04 C443.03,442.78 444.08,441.95 446.78,442.65 C447.99,442.97 448.73,443.63 448.43,444.11 C447.74,445.23 446.89,445.21 445.03,444.04 ZM 612.00 335.06 C612.00,333.99 612.45,332.84 613.00,332.50 C613.57,332.15 614.00,332.99 614.00,334.44 C614.00,335.85 613.55,337.00 613.00,337.00 C612.45,337.00 612.00,336.13 612.00,335.06 ZM 639.00 279.00 C639.00,278.45 639.42,278.00 639.94,278.00 C640.46,278.00 641.16,278.45 641.50,279.00 C641.84,279.55 641.42,280.00 640.56,280.00 C639.70,280.00 639.00,279.55 639.00,279.00 Z" fill="rgb(167,167,167)"/>
</g>
</svg>